<?xml version="1.0" encoding="iso-8859-1"?>
<!-- Generator: Adobe Illustrator 19.1.0, SVG Export Plug-In . SVG Version: 6.00 Build 0)  -->
<svg version="1.1" id="Capa_1" xmlns="http://www.w3.org/2000/svg" xmlns:xlink="http://www.w3.org/1999/xlink" x="0px" y="0px"
	 viewBox="0 0 64 64" style="enable-background:new 0 0 64 64;" xml:space="preserve">
<g>
	<g>
		<g>
			<path d="M29.101,64c17.645,0,32-14.355,32-32S46.745,0,29.1,0c-4.17,0-9.019,0.81-12.352,2.064l-2.084,0.784l1.971,1.037
				C25.423,8.509,31.101,17.189,31.101,26c0,13.785-11.215,25-25,25l-0.69,0.002L2.9,50.943l1.437,1.701
				C10.34,59.755,19.597,64,29.101,64z M33.099,26c0-8.853-5.247-17.561-13.538-22.738C22.447,2.478,25.969,2,29.101,2
				c16.542,0,30,13.458,30,30s-13.458,30-30,30c-8.175,0-16.152-3.341-21.76-9.028C21.656,52.322,33.099,40.473,33.099,26z"/>
		</g>
	</g>
	<g>
	</g>
	<g>
	</g>
	<g>
	</g>
	<g>
	</g>
	<g>
	</g>
	<g>
	</g>
	<g>
	</g>
	<g>
	</g>
	<g>
	</g>
	<g>
	</g>
	<g>
	</g>
	<g>
	</g>
	<g>
	</g>
	<g>
	</g>
	<g>
	</g>
</g>
<g>
</g>
<g>
</g>
<g>
</g>
<g>
</g>
<g>
</g>
<g>
</g>
<g>
</g>
<g>
</g>
<g>
</g>
<g>
</g>
<g>
</g>
<g>
</g>
<g>
</g>
<g>
</g>
<g>
</g>
</svg>
