<?xml version="1.0" encoding="iso-8859-1"?>
<!-- Generator: Adobe Illustrator 19.1.0, SVG Export Plug-In . SVG Version: 6.00 Build 0)  -->
<svg version="1.1" id="Capa_1" xmlns="http://www.w3.org/2000/svg" xmlns:xlink="http://www.w3.org/1999/xlink" x="0px" y="0px"
	 viewBox="0 0 63.414 63.414" style="enable-background:new 0 0 63.414 63.414;" xml:space="preserve">
<g>
	<g>
		<g>
			<path d="M1.414,40.414l7.707-7.707h13.645c0.192,1.732,0.88,3.316,1.916,4.611L14.293,47.707H4.707v2h9v9h2v-9.586l10.389-10.389
				c1.294,1.036,2.878,1.724,4.611,1.916v13.645L23,62l1.414,1.414l7.293-7.293L39,63.414L40.414,62l-7.707-7.707V40.648
				c1.732-0.192,3.316-0.88,4.611-1.916l10.389,10.389v9.586h2v-9h9v-2h-9.586L38.732,37.318c1.036-1.294,1.724-2.878,1.916-4.611
				h13.645L62,40.414L63.414,39l-7.293-7.293l7.293-7.293L62,23l-7.707,7.707H40.648c-0.192-1.732-0.88-3.316-1.916-4.611
				l10.389-10.389h9.586v-2h-9v-9h-2v9.586L37.318,24.682c-1.294-1.036-2.878-1.724-4.611-1.916V9.121l7.707-7.707L39,0
				l-7.293,7.293L24.414,0L23,1.414l7.707,7.707v13.645c-1.732,0.192-3.316,0.88-4.611,1.916L15.707,14.293V4.707h-2v9h-9v2h9.586
				l10.389,10.389c-1.036,1.294-1.724,2.878-1.916,4.611H9.121L1.414,23L0,24.414l7.293,7.293L0,39L1.414,40.414z M31.707,24.707
				c3.86,0,7,3.14,7,7s-3.14,7-7,7s-7-3.14-7-7S27.847,24.707,31.707,24.707z"/>
		</g>
	</g>
	<g>
	</g>
	<g>
	</g>
	<g>
	</g>
	<g>
	</g>
	<g>
	</g>
	<g>
	</g>
	<g>
	</g>
	<g>
	</g>
	<g>
	</g>
	<g>
	</g>
	<g>
	</g>
	<g>
	</g>
	<g>
	</g>
	<g>
	</g>
	<g>
	</g>
</g>
<g>
</g>
<g>
</g>
<g>
</g>
<g>
</g>
<g>
</g>
<g>
</g>
<g>
</g>
<g>
</g>
<g>
</g>
<g>
</g>
<g>
</g>
<g>
</g>
<g>
</g>
<g>
</g>
<g>
</g>
</svg>
