<?xml version="1.0" encoding="UTF-8"?><!DOCTYPE svg PUBLIC "-//W3C//DTD SVG 1.1//EN" "http://www.w3.org/Graphics/SVG/1.1/DTD/svg11.dtd"><svg xmlns="http://www.w3.org/2000/svg" xmlns:xlink="http://www.w3.org/1999/xlink" version="1.1" id="Ebene_1" x="0px" y="0px" width="64px" height="64px" viewBox="0 0 64 64" xml:space="preserve"><path d="M32 14c-9.925 0-18 8.075-18 18s8.075 18 18 18 18-8.075 18-18-8.075-18-18-18zm0 32c-7.72 0-14-6.28-14-14s6.28-14 14-14 14 6.28 14 14-6.28 14-14 14z"/><path d="M30 2v8a2 2 0 0 0 4 0V2a2 2 0 0 0-4 0z"/><path d="M32 52a2 2 0 0 0-2 2v8a2 2 0 0 0 4 0v-8a2 2 0 0 0-2-2z"/><path d="M62 30h-8a2 2 0 0 0 0 4h8a2 2 0 0 0 0-4z"/><path d="M12 32a2 2 0 0 0-2-2H2a2 2 0 0 0 0 4h8a2 2 0 0 0 2-2z"/><path d="M50.586 10.586l-4 4a2 2 0 1 0 2.828 2.828l4-4a2 2 0 1 0-2.828-2.828z"/><path d="M14.586 46.586l-4 4a2 2 0 1 0 2.828 2.828l4-4a2 2 0 1 0-2.828-2.828z"/><path d="M49.414 46.586a2 2 0 1 0-2.828 2.828l4 4c.39.391.902.586 1.414.586s1.024-.195 1.414-.586a2 2 0 0 0 0-2.828l-4-4z"/><path d="M10.586 10.586a2 2 0 0 0 0 2.828l4 4c.39.391.902.586 1.414.586s1.024-.195 1.414-.586a2 2 0 0 0 0-2.828l-4-4a2 2 0 0 0-2.828 0z"/><metadata><rdf:RDF xmlns:rdf="http://www.w3.org/1999/02/22-rdf-syntax-ns#" xmlns:rdfs="http://www.w3.org/2000/01/rdf-schema#" xmlns:dc="http://purl.org/dc/elements/1.1/"><rdf:Description about="https://iconscout.com/legal#licenses" dc:title="sunny" dc:description="sunny" dc:publisher="Iconscout" dc:date="2017-09-21" dc:format="image/svg+xml" dc:language="en"><dc:creator><rdf:Bag><rdf:li>Dario Ferrando</rdf:li></rdf:Bag></dc:creator></rdf:Description></rdf:RDF></metadata></svg>