<?xml version="1.0" encoding="iso-8859-1"?>
<!-- Generator: Adobe Illustrator 19.1.0, SVG Export Plug-In . SVG Version: 6.00 Build 0)  -->
<svg version="1.1" id="Capa_1" xmlns="http://www.w3.org/2000/svg" xmlns:xlink="http://www.w3.org/1999/xlink" x="0px" y="0px"
	 viewBox="0 0 64 64" style="enable-background:new 0 0 64 64;" xml:space="preserve">
<g>
	<g>
		<g>
			<path d="M56,22.35c-0.5-11.3-10-20.1-22-20.1c-10.6,0-19.6,6.7-21.8,16H11c-6,0-11,5.5-11,12c0,6.3,4.7,11,11,11h44
				c5.1,0,9-3.9,9-9C64,27.75,60.8,22.95,56,22.35z M55,39.35H11c-5.1,0-9-3.9-9-9c0-5.4,4.1-10,9-10h2.8l0.2-0.8
				c1.7-8.8,10.1-15.2,20-15.2c11.2,0,20,8.3,20,19v1h1c4.1,0,7,4.2,7,8C62,36.35,59,39.35,55,39.35z"/>
			<path d="M16.1,58.85l1.8,0.9l-1,2l-1.8-0.9L16.1,58.85z"/>
			<path d="M6.1,58.85l1.8,0.9l-1,2l-1.8-0.9L6.1,58.85z"/>
			<path d="M26.1,58.85l1.8,0.9l-1,2l-1.8-0.9L26.1,58.85z"/>
			<path d="M36.1,58.85l1.8,0.9l-1,2l-1.8-0.9L36.1,58.85z"/>
			<path d="M46.1,58.85l1.8,0.9l-1,2l-1.8-0.9L46.1,58.85z"/>
			<path d="M24.9,52.75l-1,2l-1.8-0.9l1-2L24.9,52.75z"/>
			<path d="M13.9,54.75l-1.8-0.9l1-2l1.8,0.9L13.9,54.75z"/>
			<path d="M34.9,52.75l-1,2l-1.8-0.9l1-2L34.9,52.75z"/>
			<path d="M44.9,52.75l-1,2l-1.8-0.9l1-2L44.9,52.75z"/>
			<path d="M54.9,52.75l-1,2l-1.8-0.9l1-2L54.9,52.75z"/>
			<path d="M18.9,46.75l-1.8-0.9l1-2l1.8,0.9L18.9,46.75z"/>
			<path d="M8.9,46.75l-1.8-0.9l1-2l1.8,0.9L8.9,46.75z"/>
			<path d="M28.9,46.75l-1.8-0.9l1-2l1.8,0.9L28.9,46.75z"/>
			<path d="M38.9,46.75l-1.8-0.9l1-2l1.8,0.9L38.9,46.75z"/>
			<path d="M48.9,46.75l-1.8-0.9l1-2l1.8,0.9L48.9,46.75z"/>
		</g>
	</g>
</g>
<g>
</g>
<g>
</g>
<g>
</g>
<g>
</g>
<g>
</g>
<g>
</g>
<g>
</g>
<g>
</g>
<g>
</g>
<g>
</g>
<g>
</g>
<g>
</g>
<g>
</g>
<g>
</g>
<g>
</g>
</svg>
