<?xml version="1.0" encoding="iso-8859-1"?>
<!-- Generator: Adobe Illustrator 19.0.0, SVG Export Plug-In . SVG Version: 6.00 Build 0)  -->
<svg version="1.1" id="Capa_1" xmlns="http://www.w3.org/2000/svg" xmlns:xlink="http://www.w3.org/1999/xlink" x="0px" y="0px"
	 viewBox="0 0 511.752 511.752" style="enable-background:new 0 0 511.752 511.752;" xml:space="preserve">
<path d="M511.752,204.748c0-31.829-12.402-61.749-34.906-84.254c-16.186-16.197-36.62-27.305-59.083-32.137l-25.664-5.528
	l10.975,23.848c9.891,21.501,9.554,45.796,0.537,66.754c-15.886-12.114-35.643-19.396-57.116-19.396
	c-15.684,0-30.813,3.825-44.445,11.169c-22.372-32.372-59.201-51.974-99.113-51.974c-66.468,0-120.539,54.067-120.539,120.535
	c0,6.616,0.548,13.211,1.63,19.735C37.363,255.45,0,294.028,0,341.171c0,48.384,39.368,87.752,87.752,87.752H409.63
	c48.394,0,87.762-39.368,87.762-87.752c0-20.089-7.142-38.839-18.959-53.909C499.885,264.962,511.752,235.793,511.752,204.748z
	 M435.181,122.217c8.483,4.359,16.278,10.021,23.099,16.842c17.55,17.55,27.213,40.876,27.213,65.688
	c0,24.279-9.298,47.088-26.126,64.499c-5.886-4.098-12.167-7.686-19.017-10.259c0.42-3.528,0.625-7.026,0.625-10.472
	c0-20.571-6.681-39.569-17.887-55.1C435.033,171.8,439.43,146.607,435.181,122.217z M409.63,402.664H87.752
	c-33.906,0-61.493-27.582-61.493-61.493c0-33.912,27.588-61.493,61.493-61.493h30.911l-5.493-17.141
	c-2.995-9.344-4.512-19.027-4.512-28.771c0-51.984,42.296-94.276,94.28-94.276c34.932,0,66.843,19.212,83.285,50.128l7.201,13.539
	l12.267-9.201c11.919-8.933,26.024-13.662,40.804-13.662c16.272,0,31.22,5.747,42.959,15.292
	c6.915,5.623,12.724,12.551,17.012,20.43c5.26,9.667,8.252,20.741,8.252,32.499c0,5.405-0.697,10.811-2.123,16.535l-3.282,13.17
	l13.273,2.852c5.119,1.098,9.866,3.023,14.398,5.301c8.471,4.257,15.799,10.293,21.45,17.724
	c7.936,10.435,12.699,23.317,12.699,37.073C471.133,375.082,443.541,402.664,409.63,402.664z"/>
<g>
</g>
<g>
</g>
<g>
</g>
<g>
</g>
<g>
</g>
<g>
</g>
<g>
</g>
<g>
</g>
<g>
</g>
<g>
</g>
<g>
</g>
<g>
</g>
<g>
</g>
<g>
</g>
<g>
</g>
</svg>
