<?xml version="1.0" encoding="iso-8859-1"?>
<!-- Generator: Adobe Illustrator 19.1.0, SVG Export Plug-In . SVG Version: 6.00 Build 0)  -->
<svg version="1.1" id="Capa_1" xmlns="http://www.w3.org/2000/svg" xmlns:xlink="http://www.w3.org/1999/xlink" x="0px" y="0px"
	 viewBox="0 0 64 64" style="enable-background:new 0 0 64 64;" xml:space="preserve">
<g>
	<g>
		<g>
			<path d="M56,22.85c-0.5-11.3-10-20.1-22-20.1c-10.6,0-19.6,6.7-21.8,16H11c-6,0-11,5.5-11,12c0,6.3,4.7,11,11,11h44
				c5.1,0,9-3.9,9-9C64,28.25,60.8,23.45,56,22.85z M55,39.85H11c-5.1,0-9-3.9-9-9c0-5.4,4.1-10,9-10h2.8l0.2-0.8
				c1.7-8.8,10.1-15.2,20-15.2c11.2,0,20,8.3,20,19v1h1c4.1,0,7,4.2,7,8C62,36.75,59,39.85,55,39.85z"/>
			<polygon points="31.1,46.45 27.5,54.85 31.3,54.85 28.1,60.35 29.9,61.25 34.7,52.85 30.5,52.85 32.9,47.15 			"/>
			<path d="M47.9,47.25l-8,14l-1.7-1l8-14L47.9,47.25z"/>
			<path d="M22.9,47.25l-8,14l-1.7-1l8-14L22.9,47.25z"/>
		</g>
	</g>
</g>
<g>
</g>
<g>
</g>
<g>
</g>
<g>
</g>
<g>
</g>
<g>
</g>
<g>
</g>
<g>
</g>
<g>
</g>
<g>
</g>
<g>
</g>
<g>
</g>
<g>
</g>
<g>
</g>
<g>
</g>
</svg>
