<?xml version="1.0" encoding="iso-8859-1"?>
<!-- Generator: Adobe Illustrator 19.1.0, SVG Export Plug-In . SVG Version: 6.00 Build 0)  -->
<svg version="1.1" id="Capa_1" xmlns="http://www.w3.org/2000/svg" xmlns:xlink="http://www.w3.org/1999/xlink" x="0px" y="0px"
	 viewBox="0 0 64 64" style="enable-background:new 0 0 64 64;" xml:space="preserve">
<g>
	<path d="M55.979,22.334C55.48,11.012,46.006,2.276,34,2.276c-10.599,0-19.63,6.68-21.811,16H11c-5.962,0-11,5.495-11,12
		c0,6.271,4.729,11,11,11h44c5.131,0,9-3.869,9-9C64,27.746,60.818,22.915,55.979,22.334z M55,39.276H11c-5.131,0-9-3.869-9-9
		c0-5.42,4.122-10,9-10h2.83l0.153-0.815C15.637,10.662,24.055,4.276,34,4.276c11.215,0,20,8.346,20,19v1h1c4.125,0,7,4.216,7,8
		C62,36.267,58.991,39.276,55,39.276z"/>
	<path d="M24.909,45.689l-5,11l-1.82-0.827l5-11L24.909,45.689z"/>
	<path d="M14.91,45.689l-5,11l-1.82-0.827l5-11L14.91,45.689z"/>
	<path d="M34.909,45.689l-5,11l-1.82-0.827l5-11L34.909,45.689z"/>
	<path d="M44.91,45.689l-5,11l-1.82-0.827l5-11L44.91,45.689z"/>
	<path d="M49.91,56.689l-1.82-0.827l4.999-11l1.82,0.827L49.91,56.689z"/>
	<path d="M17.894,59.723l-1,2l-1.789-0.894l1-2L17.894,59.723z"/>
	<path d="M7.894,59.723l-1,2l-1.789-0.894l1-2L7.894,59.723z"/>
	<path d="M27.894,59.724l-1,2l-1.789-0.894l1-2L27.894,59.724z"/>
	<path d="M37.895,59.724l-1,2l-1.789-0.894l1-2L37.895,59.724z"/>
	<path d="M47.894,59.724l-1,2l-1.789-0.894l1-2L47.894,59.724z"/>
	<g>
	</g>
	<g>
	</g>
	<g>
	</g>
	<g>
	</g>
	<g>
	</g>
	<g>
	</g>
	<g>
	</g>
	<g>
	</g>
	<g>
	</g>
	<g>
	</g>
	<g>
	</g>
	<g>
	</g>
	<g>
	</g>
	<g>
	</g>
	<g>
	</g>
</g>
<g>
</g>
<g>
</g>
<g>
</g>
<g>
</g>
<g>
</g>
<g>
</g>
<g>
</g>
<g>
</g>
<g>
</g>
<g>
</g>
<g>
</g>
<g>
</g>
<g>
</g>
<g>
</g>
<g>
</g>
</svg>
