<?xml version="1.0" encoding="iso-8859-1"?>
<!-- Generator: Adobe Illustrator 19.1.0, SVG Export Plug-In . SVG Version: 6.00 Build 0)  -->
<svg version="1.1" id="Capa_1" xmlns="http://www.w3.org/2000/svg" xmlns:xlink="http://www.w3.org/1999/xlink" x="0px" y="0px"
	 viewBox="0 0 64 64" style="enable-background:new 0 0 64 64;" xml:space="preserve">
<g>
	<g>
		<g>
			<path d="M11,46.084h7v-2h-7c-5.131,0-9-3.869-9-9c0-5.42,4.122-10,9-10h2.83l0.153-0.815C15.637,15.47,24.055,9.084,34,9.084
				c11.215,0,20,8.346,20,19v1h1c4.125,0,7,4.216,7,8c0,3.991-3.009,7-7,7h-9v2h9c5.131,0,9-3.869,9-9
				c0-4.53-3.182-9.361-8.021-9.942C55.48,15.82,46.006,7.084,34,7.084c-10.599,0-19.63,6.68-21.811,16H11c-5.962,0-11,5.495-11,12
				C0,41.355,4.729,46.084,11,46.084z"/>
			<polygon points="21.832,48.639 23.535,46.084 30,46.084 30,44.084 23.535,44.084 21.832,41.529 20.168,42.639 21.798,45.084 
				20.168,47.529 			"/>
			<polygon points="42.168,41.529 40.465,44.084 34,44.084 34,46.084 40.465,46.084 42.168,48.639 43.832,47.529 42.202,45.084 
				43.832,42.639 			"/>
			<polygon points="32,55.286 34.445,56.916 35.555,55.252 33,53.549 33,47.084 31,47.084 31,53.549 28.445,55.252 29.555,56.916 
							"/>
			<polygon points="32,34.882 29.555,33.252 28.445,34.916 31,36.619 31,43.084 33,43.084 33,36.619 35.555,34.916 34.445,33.252 
							"/>
			<polygon points="25.363,34.988 24.787,37.87 21.904,38.447 22.297,40.408 25.308,39.805 29.293,43.791 30.707,42.377 
				26.722,38.391 27.324,35.381 			"/>
			<polygon points="38.637,55.18 39.214,52.298 42.096,51.721 41.703,49.76 38.692,50.362 34.707,46.377 33.293,47.791 
				37.278,51.776 36.676,54.787 			"/>
			<polygon points="29.293,46.377 25.307,50.362 22.297,49.76 21.904,51.721 24.786,52.297 25.363,55.18 27.324,54.787 
				26.721,51.776 30.707,47.791 			"/>
			<polygon points="34.707,43.791 38.692,39.806 41.703,40.408 42.096,38.447 39.214,37.87 38.637,34.988 36.676,35.381 
				37.278,38.392 33.293,42.377 			"/>
		</g>
	</g>
	<g>
	</g>
	<g>
	</g>
	<g>
	</g>
	<g>
	</g>
	<g>
	</g>
	<g>
	</g>
	<g>
	</g>
	<g>
	</g>
	<g>
	</g>
	<g>
	</g>
	<g>
	</g>
	<g>
	</g>
	<g>
	</g>
	<g>
	</g>
	<g>
	</g>
</g>
<g>
</g>
<g>
</g>
<g>
</g>
<g>
</g>
<g>
</g>
<g>
</g>
<g>
</g>
<g>
</g>
<g>
</g>
<g>
</g>
<g>
</g>
<g>
</g>
<g>
</g>
<g>
</g>
<g>
</g>
</svg>
