<?xml version="1.0" encoding="iso-8859-1"?>
<!-- Generator: Adobe Illustrator 19.1.0, SVG Export Plug-In . SVG Version: 6.00 Build 0)  -->
<svg version="1.1" id="Capa_1" xmlns="http://www.w3.org/2000/svg" xmlns:xlink="http://www.w3.org/1999/xlink" x="0px" y="0px"
	 viewBox="0 0 64 64" style="enable-background:new 0 0 64 64;" xml:space="preserve">
<g>
	<g>
		<g>
			<path d="M55.979,22.81C55.48,11.488,46.006,2.752,34,2.752c-10.599,0-19.63,6.68-21.811,16H11c-5.962,0-11,5.495-11,12
				c0,6.271,4.729,11,11,11h44c5.131,0,9-3.869,9-9C64,28.222,60.818,23.391,55.979,22.81z M55,39.752H11c-5.131,0-9-3.869-9-9
				c0-5.42,4.122-10,9-10h2.83l0.153-0.815C15.637,11.138,24.055,4.752,34,4.752c11.215,0,20,8.346,20,19v1h1c4.125,0,7,4.216,7,8
				C62,36.743,58.991,39.752,55,39.752z"/>
			<polygon points="31.081,46.358 27.483,54.752 31.277,54.752 28.132,60.256 29.868,61.248 34.723,52.752 30.517,52.752 
				32.919,47.146 			"/>
			<polygon points="41.081,46.358 37.483,54.752 41.277,54.752 38.132,60.256 39.868,61.248 44.723,52.752 40.517,52.752 
				42.919,47.146 			"/>
			<polygon points="21.081,46.358 17.483,54.752 21.277,54.752 18.132,60.256 19.868,61.248 24.723,52.752 20.517,52.752 
				22.919,47.146 			"/>
		</g>
	</g>
	<g>
	</g>
	<g>
	</g>
	<g>
	</g>
	<g>
	</g>
	<g>
	</g>
	<g>
	</g>
	<g>
	</g>
	<g>
	</g>
	<g>
	</g>
	<g>
	</g>
	<g>
	</g>
	<g>
	</g>
	<g>
	</g>
	<g>
	</g>
	<g>
	</g>
</g>
<g>
</g>
<g>
</g>
<g>
</g>
<g>
</g>
<g>
</g>
<g>
</g>
<g>
</g>
<g>
</g>
<g>
</g>
<g>
</g>
<g>
</g>
<g>
</g>
<g>
</g>
<g>
</g>
<g>
</g>
</svg>
