<?xml version="1.0" encoding="UTF-8"?><svg xmlns="http://www.w3.org/2000/svg" xmlns:xlink="http://www.w3.org/1999/xlink" version="1.1" id="Layer_1" x="0px" y="0px" viewBox="0 0 101 101" xml:space="preserve"><path d="M50.5 16.4c-18.8 0-34.1 15.3-34.1 34.1s15.3 34.1 34.1 34.1 34.1-15.3 34.1-34.1-15.3-34.1-34.1-34.1zm0 63.4c-16.1 0-29.3-13.1-29.3-29.3s13.1-29.3 29.3-29.3 29.3 13.1 29.3 29.3-13.2 29.3-29.3 29.3z"/><path d="M57.1 33.1c-.9-.9-2.5-.9-3.4 0L38.2 48.6c-.5.5-.7 1.1-.7 1.7s.3 1.2.7 1.7l15.5 15.5c.5.5 1.1.7 1.7.7s1.2-.2 1.7-.7c.9-.9.9-2.5 0-3.4L43.3 50.3l13.8-13.8c1-.9 1-2.4 0-3.4z"/><metadata><rdf:RDF xmlns:rdf="http://www.w3.org/1999/02/22-rdf-syntax-ns#" xmlns:rdfs="http://www.w3.org/2000/01/rdf-schema#" xmlns:dc="http://purl.org/dc/elements/1.1/"><rdf:Description about="https://iconscout.com/legal#licenses" dc:title="left,arrow,navigation,slider" dc:description="left,arrow,navigation,slider" dc:publisher="Iconscout" dc:date="2017-11-15" dc:format="image/svg+xml" dc:language="en"><dc:creator><rdf:Bag><rdf:li>Lucía González</rdf:li></rdf:Bag></dc:creator></rdf:Description></rdf:RDF></metadata></svg>