<?xml version="1.0" encoding="iso-8859-1"?>
<!-- Generator: Adobe Illustrator 19.0.0, SVG Export Plug-In . SVG Version: 6.00 Build 0)  -->
<svg version="1.1" id="Capa_1" xmlns="http://www.w3.org/2000/svg" xmlns:xlink="http://www.w3.org/1999/xlink" x="0px" y="0px"
	 viewBox="0 0 519.203 519.203" style="enable-background:new 0 0 519.203 519.203;" xml:space="preserve">
<path d="M519.203,212.223c0-66.211-53.872-120.083-120.083-120.083c-25.715,0-62.319,15.368-62.319,15.368
	s78.744,15.371,93.403,95.726c-15.744-30.28-47.287-51.068-83.704-51.068c-15.673,0-30.813,3.826-44.456,11.171
	c-22.361-32.372-59.184-51.974-99.106-51.974c-66.462,0-120.535,54.066-120.535,120.534c0,6.616,0.549,13.212,1.631,19.736
	C37.362,253.58,0,292.159,0,339.301c0,48.395,39.367,87.763,87.757,87.763h321.877c48.385,0,87.752-39.367,87.752-87.763
	c0-15.747-4.502-30.613-12.047-43.614C506.285,274.066,519.203,244.629,519.203,212.223z M410.291,119.065
	c46.497,5.539,82.654,45.204,82.654,93.157c0,24.128-9.273,46.042-24.296,62.675c-1.904-1.75-3.721-3.593-5.778-5.175
	c-4.765-3.668-10.051-6.642-15.558-9.249c6.866-14.729,10.706-31.083,10.706-48.25C458.019,174.229,439.483,140.041,410.291,119.065
	z M409.634,400.805H87.757c-33.911,0-61.498-27.592-61.498-61.504c0-33.911,27.588-61.493,61.498-61.493h30.895l-5.483-17.129
	c-2.99-9.354-4.508-19.038-4.508-28.783c0-51.984,42.292-94.275,94.276-94.275c34.937,0,66.848,19.212,83.28,50.138l7.191,13.54
	l12.278-9.201c11.93-8.945,26.054-13.674,40.815-13.674c37.613,0,68.211,30.608,68.211,68.222c0,3.036-0.287,6.144-0.737,9.28
	c-0.347,2.408-0.766,4.828-1.376,7.265l-3.282,13.17l13.273,2.852c1.405,0.301,2.696,0.856,4.061,1.251
	c3.537,1.023,6.912,2.338,10.142,3.946c8.916,4.44,16.528,10.892,22.314,18.81c7.497,10.264,12.021,22.744,12.021,36.081
	C471.127,373.213,443.545,400.805,409.634,400.805z"/>
<g>
</g>
<g>
</g>
<g>
</g>
<g>
</g>
<g>
</g>
<g>
</g>
<g>
</g>
<g>
</g>
<g>
</g>
<g>
</g>
<g>
</g>
<g>
</g>
<g>
</g>
<g>
</g>
<g>
</g>
</svg>
