<?xml version="1.0" encoding="iso-8859-1"?>
<!-- Generator: Adobe Illustrator 19.0.0, SVG Export Plug-In . SVG Version: 6.00 Build 0)  -->
<svg version="1.1" id="Capa_1" xmlns="http://www.w3.org/2000/svg" xmlns:xlink="http://www.w3.org/1999/xlink" x="0px" y="0px"
	 viewBox="0 0 554.53 554.53" style="enable-background:new 0 0 554.53 554.53;" xml:space="preserve">
<path d="M554.53,228.014c0-61.975-50.415-112.39-112.39-112.39c-38.266,0-72.083,19.258-92.386,48.559
	c-1.089-0.037-2.155-0.165-3.254-0.165c-15.683,0-30.823,3.826-44.455,11.16c-22.366-32.362-59.191-51.963-99.106-51.963
	c-66.469,0-120.54,54.066-120.54,120.535c0,6.615,0.548,13.211,1.631,19.735C37.362,265.444,0,304.021,0,351.154
	c0,48.385,39.367,87.752,87.756,87.752h321.878c48.384,0,87.752-39.367,87.752-87.752c0-8.106-1.311-15.957-3.441-23.502
	C529.896,308.883,554.53,271.301,554.53,228.014z M471.127,351.154c0,33.912-27.582,61.493-61.493,61.493H87.756
	c-33.911,0-61.497-27.581-61.497-61.493c0-33.911,27.587-61.493,61.497-61.493h30.906l-5.492-17.14
	c-2.996-9.344-4.513-19.027-4.513-28.771c0-51.985,42.296-94.276,94.281-94.276c34.936,0,66.847,19.202,83.28,50.127l7.2,13.54
	l12.268-9.201c9.089-6.812,19.461-11.138,30.425-12.829c3.415-0.526,6.879-0.834,10.389-0.834c5.964,0,11.721,0.849,17.237,2.294
	c29.28,7.668,50.975,34.278,50.975,65.929c0,5.364-0.708,10.924-2.113,16.535l-3.293,13.17l13.284,2.852
	c14.115,3.026,26.277,10.907,34.901,21.639c5.649,7.029,9.591,15.346,11.745,24.268
	C470.346,341.565,471.127,346.275,471.127,351.154z M483.126,303.75c-10.108-15.616-24.911-28.073-42.772-34.778
	c0.41-3.518,0.616-7.015,0.616-10.472c0-40.731-25.955-75.42-62.151-88.664c15.75-17.133,38.266-27.953,63.32-27.953
	c47.492,0,86.131,38.639,86.131,86.131C528.271,260.678,509.992,289.152,483.126,303.75z"/>
<g>
</g>
<g>
</g>
<g>
</g>
<g>
</g>
<g>
</g>
<g>
</g>
<g>
</g>
<g>
</g>
<g>
</g>
<g>
</g>
<g>
</g>
<g>
</g>
<g>
</g>
<g>
</g>
<g>
</g>
</svg>
