<?xml version="1.0" encoding="iso-8859-1"?>
<!-- Generator: Adobe Illustrator 19.1.0, SVG Export Plug-In . SVG Version: 6.00 Build 0)  -->
<svg version="1.1" id="Capa_1" xmlns="http://www.w3.org/2000/svg" xmlns:xlink="http://www.w3.org/1999/xlink" x="0px" y="0px"
	 viewBox="0 0 64 64" style="enable-background:new 0 0 64 64;" xml:space="preserve">
<g>
	<g>
		<g>
			<path d="M11,51.5h44c5.131,0,9-3.869,9-9c0-4.53-3.182-9.361-8.021-9.942C55.48,21.236,46.006,12.5,34,12.5
				c-10.599,0-19.63,6.68-21.811,16H11c-5.962,0-11,5.495-11,12C0,46.771,4.729,51.5,11,51.5z M11,30.5h2.83l0.153-0.815
				C15.637,20.886,24.055,14.5,34,14.5c11.215,0,20,8.346,20,19v1h1c4.125,0,7,4.216,7,8c0,3.991-3.009,7-7,7H11
				c-5.131,0-9-3.869-9-9C2,35.08,6.122,30.5,11,30.5z"/>
		</g>
	</g>
	<g>
	</g>
	<g>
	</g>
	<g>
	</g>
	<g>
	</g>
	<g>
	</g>
	<g>
	</g>
	<g>
	</g>
	<g>
	</g>
	<g>
	</g>
	<g>
	</g>
	<g>
	</g>
	<g>
	</g>
	<g>
	</g>
	<g>
	</g>
	<g>
	</g>
</g>
<g>
</g>
<g>
</g>
<g>
</g>
<g>
</g>
<g>
</g>
<g>
</g>
<g>
</g>
<g>
</g>
<g>
</g>
<g>
</g>
<g>
</g>
<g>
</g>
<g>
</g>
<g>
</g>
<g>
</g>
</svg>
