<?xml version="1.0" encoding="iso-8859-1"?>
<!-- Generator: Adobe Illustrator 19.0.0, SVG Export Plug-In . SVG Version: 6.00 Build 0)  -->
<svg version="1.1" id="Capa_1" xmlns="http://www.w3.org/2000/svg" xmlns:xlink="http://www.w3.org/1999/xlink" x="0px" y="0px"
	 viewBox="0 0 340.422 340.422" style="enable-background:new 0 0 340.422 340.422;" xml:space="preserve">
<path d="M137.382,340.422c-20.73,0-41.034-3.733-60.344-11.098l-44.21-16.863l46.574-8.328
	c64.939-11.622,112.072-67.935,112.072-133.921c0-65.987-47.133-122.299-112.072-133.921l-46.574-8.329l44.21-16.863
	C96.348,3.733,116.652,0,137.382,0c93.856,0,170.211,76.356,170.211,170.211C307.593,264.066,231.238,340.422,137.382,340.422z
	 M130.792,314.01c2.19,0.103,4.389,0.153,6.59,0.153c79.377,0,143.952-64.58,143.952-143.951
	c0-79.372-64.576-143.953-143.952-143.953c-2.201,0-4.4,0.051-6.59,0.153c52.328,27.378,86.941,82.039,86.941,143.799
	C217.733,231.97,183.12,286.632,130.792,314.01z"/>
<g>
</g>
<g>
</g>
<g>
</g>
<g>
</g>
<g>
</g>
<g>
</g>
<g>
</g>
<g>
</g>
<g>
</g>
<g>
</g>
<g>
</g>
<g>
</g>
<g>
</g>
<g>
</g>
<g>
</g>
</svg>
