<?xml version="1.0" encoding="iso-8859-1"?>
<!-- Generator: Adobe Illustrator 19.1.0, SVG Export Plug-In . SVG Version: 6.00 Build 0)  -->
<svg version="1.1" id="Capa_1" xmlns="http://www.w3.org/2000/svg" xmlns:xlink="http://www.w3.org/1999/xlink" x="0px" y="0px"
	 viewBox="0 0 64 64" style="enable-background:new 0 0 64 64;" xml:space="preserve">
<g>
	<path d="M56.976,28.849C56.439,18.801,47.236,10.776,36,10.776c-1.959,0-3.854,0.275-5.657,0.769
		C27.916,9.738,25.042,8.776,22,8.776c-7.72,0-14,6.28-14,14c0,2.164,0.487,3.615,1.247,5.018C6.683,29.788,5,33.067,5,36.776
		c0,5.794,4.206,10,10,10h41c4.71,0,8-3.29,8-8C64,34.283,61.217,29.494,56.976,28.849z M10,22.776c0-6.617,5.383-12,12-12
		c2.119,0,4.143,0.547,5.943,1.58c-5.84,2.384-10.311,7.286-11.754,13.42H15c-1.442,0-2.811,0.344-4.05,0.951
		C10.292,25.476,10,24.394,10,22.776z M56,44.776H15c-4.71,0-8-3.29-8-8c0-4.962,3.589-9,8-9h2.829l0.153-0.815
		c1.546-8.22,9.123-14.185,18.018-14.185c10.477,0,19,7.626,19,17v1h1c3.536,0,6,4.216,6,8C62,42.421,59.645,44.776,56,44.776z"/>
	<rect y="21.776" width="6" height="2"/>
	<rect x="21" y="0.776" width="2" height="6"/>
	<path d="M9.293,11.483l-6-6l1.414-1.414l6,6L9.293,11.483z"/>
	<path d="M16.916,58.184l-1.829-0.813l4-9l1.829,0.813L16.916,58.184z"/>
	<path d="M26.917,58.183l-1.829-0.813l4-9l1.829,0.813L26.917,58.183z"/>
	<path d="M36.917,58.183l-1.829-0.813l4-9l1.829,0.813L36.917,58.183z"/>
	<path d="M46.917,58.183l-1.829-0.813l4-9l1.829,0.813L46.917,58.183z"/>
	<path d="M14.106,60.329l1.789,0.894l-1,2l-1.789-0.894L14.106,60.329z"/>
	<path d="M24.106,60.329l1.789,0.894l-1,2l-1.789-0.894L24.106,60.329z"/>
	<path d="M34.106,60.329l1.789,0.894l-1,2l-1.789-0.894L34.106,60.329z"/>
	<path d="M44.105,60.33l1.789,0.894l-1,2l-1.789-0.894L44.105,60.33z"/>
	<g>
	</g>
	<g>
	</g>
	<g>
	</g>
	<g>
	</g>
	<g>
	</g>
	<g>
	</g>
	<g>
	</g>
	<g>
	</g>
	<g>
	</g>
	<g>
	</g>
	<g>
	</g>
	<g>
	</g>
	<g>
	</g>
	<g>
	</g>
	<g>
	</g>
</g>
<g>
</g>
<g>
</g>
<g>
</g>
<g>
</g>
<g>
</g>
<g>
</g>
<g>
</g>
<g>
</g>
<g>
</g>
<g>
</g>
<g>
</g>
<g>
</g>
<g>
</g>
<g>
</g>
<g>
</g>
</svg>
