<?xml version="1.0" encoding="iso-8859-1"?>
<!-- Generator: Adobe Illustrator 19.1.0, SVG Export Plug-In . SVG Version: 6.00 Build 0)  -->
<svg version="1.1" id="Capa_1" xmlns="http://www.w3.org/2000/svg" xmlns:xlink="http://www.w3.org/1999/xlink" x="0px" y="0px"
	 viewBox="0 0 64 64" style="enable-background:new 0 0 64 64;" xml:space="preserve">
<g>
	<path d="M56.976,28.849C56.439,18.801,47.236,10.776,36,10.776c-1.959,0-3.854,0.275-5.657,0.769
		C27.916,9.738,25.042,8.776,22,8.776c-7.72,0-14,6.28-14,14c0,2.164,0.487,3.615,1.247,5.018C6.683,29.788,5,33.067,5,36.776
		c0,5.794,4.206,10,10,10h41c4.71,0,8-3.29,8-8C64,34.283,61.217,29.494,56.976,28.849z M10,22.776c0-6.617,5.383-12,12-12
		c2.119,0,4.143,0.547,5.943,1.58c-5.84,2.384-10.311,7.286-11.754,13.42H15c-1.442,0-2.811,0.344-4.05,0.951
		C10.292,25.476,10,24.394,10,22.776z M56,44.776H15c-4.71,0-8-3.29-8-8c0-4.962,3.589-9,8-9h2.829l0.153-0.815
		c1.546-8.22,9.123-14.185,18.018-14.185c10.477,0,19,7.626,19,17v1h1c3.536,0,6,4.216,6,8C62,42.421,59.645,44.776,56,44.776z"/>
	<rect y="21.776" width="6" height="2"/>
	<rect x="21" y="0.776" width="2" height="6"/>
	<path d="M9.293,11.483l-6-6l1.414-1.414l6,6L9.293,11.483z"/>
	<path d="M15.894,61.224l-1,2l-1.789-0.894l1-2L15.894,61.224z"/>
	<path d="M25.894,61.224l-1,2l-1.789-0.894l1-2L25.894,61.224z"/>
	<path d="M35.895,61.224l-1,2l-1.789-0.894l1-2L35.895,61.224z"/>
	<path d="M45.894,61.224l-1,2l-1.789-0.894l1-2L45.894,61.224z"/>
	<path d="M18.106,48.329l1.789,0.894l-1,2l-1.789-0.894L18.106,48.329z"/>
	<path d="M28.105,48.329l1.789,0.894l-1,2l-1.789-0.894L28.105,48.329z"/>
	<path d="M38.105,48.329l1.789,0.894l-1,2l-1.789-0.894L38.105,48.329z"/>
	<path d="M49.894,49.224l-1,2l-1.789-0.894l1-2L49.894,49.224z"/>
	<path d="M10.894,57.223l-1.789-0.894l1-2l1.789,0.894L10.894,57.223z"/>
	<path d="M20.106,54.329l1.789,0.894l-1,2l-1.789-0.894L20.106,54.329z"/>
	<path d="M30.894,57.224l-1.789-0.894l1-2l1.789,0.894L30.894,57.224z"/>
	<path d="M40.894,58.224l-1.789-0.894l1-2l1.789,0.894L40.894,58.224z"/>
	<g>
	</g>
	<g>
	</g>
	<g>
	</g>
	<g>
	</g>
	<g>
	</g>
	<g>
	</g>
	<g>
	</g>
	<g>
	</g>
	<g>
	</g>
	<g>
	</g>
	<g>
	</g>
	<g>
	</g>
	<g>
	</g>
	<g>
	</g>
	<g>
	</g>
</g>
<g>
</g>
<g>
</g>
<g>
</g>
<g>
</g>
<g>
</g>
<g>
</g>
<g>
</g>
<g>
</g>
<g>
</g>
<g>
</g>
<g>
</g>
<g>
</g>
<g>
</g>
<g>
</g>
<g>
</g>
</svg>
