<?xml version="1.0" encoding="iso-8859-1"?>
<!-- Generator: Adobe Illustrator 19.1.0, SVG Export Plug-In . SVG Version: 6.00 Build 0)  -->
<svg version="1.1" id="Capa_1" xmlns="http://www.w3.org/2000/svg" xmlns:xlink="http://www.w3.org/1999/xlink" x="0px" y="0px"
	 viewBox="0 0 64.041 64.041" style="enable-background:new 0 0 64.041 64.041;" xml:space="preserve">
<g>
	<path d="M57.017,24.87C56.48,14.822,47.277,6.797,36.041,6.797c-4.097,0-7.938,1.156-11.156,3.157
		c-2.647-3.251-6.59-5.157-10.844-5.157c-0.843,0-1.718,0.084-2.599,0.25L9.988,5.321l0.796,1.247
		c0.822,1.289,1.257,2.773,1.257,4.291c0,4.411-3.589,8-8,8c-0.89,0-1.781-0.154-2.649-0.459L0,17.911l0.062,1.474
		c0.104,2.479,0.857,4.883,2.181,6.95c0.85,1.327,1.938,2.509,3.182,3.484c-0.244,0.949-0.384,1.945-0.384,2.978
		c0,5.794,4.206,10,10,10h41c4.71,0,8-3.29,8-8C64.041,30.304,61.258,25.515,57.017,24.87z M3.926,25.257
		c-0.885-1.383-1.473-2.942-1.73-4.573c0.612,0.117,1.228,0.175,1.845,0.175c5.514,0,10-4.486,10-10c0-1.394-0.292-2.763-0.853-4.03
		c0.289-0.021,0.573-0.032,0.853-0.032c3.591,0,6.929,1.581,9.197,4.291c-3.457,2.653-5.989,6.375-7.008,10.709h-1.189
		c-3.88,0-7.242,2.448-8.9,6.009C5.291,27.06,4.533,26.206,3.926,25.257z M56.041,40.797h-41c-4.71,0-8-3.29-8-8
		c0-4.962,3.589-9,8-9h2.829l0.153-0.815c1.546-8.22,9.123-14.185,18.018-14.185c10.477,0,19,7.626,19,17v1h1c3.536,0,6,4.216,6,8
		C62.041,38.442,59.686,40.797,56.041,40.797z"/>
	<path d="M16.957,54.203l-1.829-0.813l4-9l1.829,0.813L16.957,54.203z"/>
	<path d="M26.958,54.204l-1.829-0.813l4-9l1.829,0.813L26.958,54.204z"/>
	<path d="M36.958,54.203l-1.829-0.813l4-9l1.829,0.813L36.958,54.203z"/>
	<path d="M46.958,54.202L45.13,53.39l4-9l1.829,0.813L46.958,54.202z"/>
	<path d="M14.147,56.35l1.789,0.894l-1,2l-1.789-0.894L14.147,56.35z"/>
	<path d="M24.147,56.35l1.789,0.894l-1,2l-1.789-0.894L24.147,56.35z"/>
	<path d="M34.146,56.349l1.789,0.894l-1,2l-1.789-0.894L34.146,56.349z"/>
	<path d="M44.146,56.349l1.789,0.894l-1,2l-1.789-0.894L44.146,56.349z"/>
	<g>
	</g>
	<g>
	</g>
	<g>
	</g>
	<g>
	</g>
	<g>
	</g>
	<g>
	</g>
	<g>
	</g>
	<g>
	</g>
	<g>
	</g>
	<g>
	</g>
	<g>
	</g>
	<g>
	</g>
	<g>
	</g>
	<g>
	</g>
	<g>
	</g>
</g>
<g>
</g>
<g>
</g>
<g>
</g>
<g>
</g>
<g>
</g>
<g>
</g>
<g>
</g>
<g>
</g>
<g>
</g>
<g>
</g>
<g>
</g>
<g>
</g>
<g>
</g>
<g>
</g>
<g>
</g>
</svg>
