<?xml version="1.0" encoding="iso-8859-1"?>
<!-- Generator: Adobe Illustrator 19.0.0, SVG Export Plug-In . SVG Version: 6.00 Build 0)  -->
<svg version="1.1" id="Capa_1" xmlns="http://www.w3.org/2000/svg" xmlns:xlink="http://www.w3.org/1999/xlink" x="0px" y="0px"
	 viewBox="0 0 497.381 497.381" style="enable-background:new 0 0 497.381 497.381;" xml:space="preserve">
<g>
	<path d="M440.35,177.412c0.411-3.519,0.616-7.016,0.616-10.473c0-52.098-42.384-94.481-94.471-94.481
		c-15.672,0-30.812,3.825-44.455,11.171c-22.361-32.373-59.184-51.975-99.106-51.975c-66.468,0-120.535,54.067-120.535,120.535
		c0,6.616,0.543,13.211,1.631,19.735C37.357,173.873,0,212.451,0,259.594c0,48.394,39.367,87.763,87.752,87.763h321.877
		c48.384,0,87.752-39.368,87.752-87.763C497.381,222.821,474.035,190.059,440.35,177.412z M409.629,321.098H87.752
		c-33.912,0-61.493-27.593-61.493-61.504s27.581-61.493,61.493-61.493h30.905l-5.487-17.14c-2.996-9.345-4.513-19.028-4.513-28.772
		c0-51.984,42.292-94.276,94.276-94.276c34.936,0,66.847,19.212,83.28,50.139l7.191,13.539l12.278-9.201
		c11.929-8.944,26.054-13.673,40.814-13.673c37.614,0,68.212,30.607,68.212,68.222c0,5.364-0.708,10.924-2.113,16.535l-3.293,13.17
		l13.284,2.852c28.125,6.031,48.538,31.306,48.538,60.098C471.122,293.505,443.54,321.098,409.629,321.098z"/>
	<path d="M182.14,406.982c-7.252,0-13.129,6.237-13.129,13.489c0,7.252,5.878,13.129,13.129,13.129s13.129-5.878,13.129-13.129
		v-0.718C195.27,412.501,189.392,406.982,182.14,406.982z"/>
	<path d="M115.6,373.995c-7.252,0-13.129,6.236-13.129,13.489c0,7.252,5.878,13.129,13.129,13.129
		c7.253,0,13.129-5.878,13.129-13.129v-0.718C128.73,379.513,122.853,373.995,115.6,373.995z"/>
	<path d="M115.6,439.109c-7.252,0-13.129,6.237-13.129,13.489s5.878,13.129,13.129,13.129c7.253,0,13.129-5.878,13.129-13.129
		v-0.718C128.73,444.627,122.853,439.109,115.6,439.109z"/>
	<path d="M315.23,406.982c-7.252,0-13.129,6.237-13.129,13.489c0,7.252,5.878,13.129,13.129,13.129
		c7.252,0,13.129-5.878,13.129-13.129v-0.718C328.359,412.501,322.482,406.982,315.23,406.982z"/>
	<path d="M248.69,373.995c-7.252,0-13.129,6.236-13.129,13.489c0,7.252,5.878,13.129,13.129,13.129
		c7.253,0,13.129-5.878,13.129-13.129v-0.718C261.819,379.513,255.943,373.995,248.69,373.995z"/>
	<path d="M248.69,439.109c-7.252,0-13.129,6.237-13.129,13.489s5.878,13.129,13.129,13.129c7.253,0,13.129-5.878,13.129-13.129
		v-0.718C261.819,444.627,255.943,439.109,248.69,439.109z"/>
	<path d="M381.78,373.995c-7.252,0-13.129,6.236-13.129,13.489c0,7.252,5.878,13.129,13.129,13.129
		c7.252,0,13.129-5.878,13.129-13.129v-0.718C394.909,379.513,389.031,373.995,381.78,373.995z"/>
	<path d="M381.78,439.109c-7.252,0-13.129,6.237-13.129,13.489s5.878,13.129,13.129,13.129c7.252,0,13.129-5.878,13.129-13.129
		v-0.718C394.909,444.627,389.031,439.109,381.78,439.109z"/>
</g>
<g>
</g>
<g>
</g>
<g>
</g>
<g>
</g>
<g>
</g>
<g>
</g>
<g>
</g>
<g>
</g>
<g>
</g>
<g>
</g>
<g>
</g>
<g>
</g>
<g>
</g>
<g>
</g>
<g>
</g>
</svg>
