<?xml version="1.0" encoding="iso-8859-1"?>
<!-- Generator: Adobe Illustrator 19.1.0, SVG Export Plug-In . SVG Version: 6.00 Build 0)  -->
<svg version="1.1" id="Capa_1" xmlns="http://www.w3.org/2000/svg" xmlns:xlink="http://www.w3.org/1999/xlink" x="0px" y="0px"
	 viewBox="0 0 64 64" style="enable-background:new 0 0 64 64;" xml:space="preserve">
<g>
	<g>
		<g>
			<path d="M56.976,24.849C56.439,14.801,47.236,6.776,36,6.776c-4.097,0-7.938,1.156-11.156,3.157
				C22.197,6.682,18.254,4.776,14,4.776c-7.72,0-14,6.28-14,14c0,2.682,0.761,5.288,2.201,7.538c0.85,1.327,1.938,2.509,3.182,3.484
				C5.14,30.747,5,31.743,5,32.776c0,5.794,4.206,10,10,10h41c4.71,0,8-3.29,8-8C64,30.283,61.217,25.494,56.976,24.849z
				 M3.886,25.236C2.652,23.309,2,21.075,2,18.776c0-6.617,5.383-12,12-12c3.591,0,6.929,1.581,9.197,4.291
				c-3.457,2.653-5.989,6.375-7.008,10.709H15c-3.88,0-7.242,2.448-8.9,6.009C5.251,27.039,4.492,26.185,3.886,25.236z M56,40.776
				H15c-4.71,0-8-3.29-8-8c0-4.962,3.589-9,8-9h2.829l0.153-0.815C19.528,14.741,27.105,8.776,36,8.776c10.477,0,19,7.626,19,17v1h1
				c3.536,0,6,4.216,6,8C62,38.421,59.645,40.776,56,40.776z"/>
			<path d="M16.916,54.183l-1.829-0.813l4-9l1.829,0.813L16.916,54.183z"/>
			<path d="M26.917,54.183l-1.829-0.813l4-9l1.829,0.813L26.917,54.183z"/>
			<path d="M36.917,54.183l-1.829-0.813l4-9l1.829,0.813L36.917,54.183z"/>
			<path d="M46.917,54.183l-1.829-0.813l4-9l1.829,0.813L46.917,54.183z"/>
			<path d="M14.106,56.329l1.789,0.894l-1,2l-1.789-0.894L14.106,56.329z"/>
			<path d="M24.106,56.329l1.789,0.894l-1,2l-1.789-0.894L24.106,56.329z"/>
			<path d="M34.106,56.329l1.789,0.894l-1,2l-1.789-0.894L34.106,56.329z"/>
			<path d="M44.105,56.33l1.789,0.894l-1,2l-1.789-0.894L44.105,56.33z"/>
		</g>
	</g>
	<g>
	</g>
	<g>
	</g>
	<g>
	</g>
	<g>
	</g>
	<g>
	</g>
	<g>
	</g>
	<g>
	</g>
	<g>
	</g>
	<g>
	</g>
	<g>
	</g>
	<g>
	</g>
	<g>
	</g>
	<g>
	</g>
	<g>
	</g>
	<g>
	</g>
</g>
<g>
</g>
<g>
</g>
<g>
</g>
<g>
</g>
<g>
</g>
<g>
</g>
<g>
</g>
<g>
</g>
<g>
</g>
<g>
</g>
<g>
</g>
<g>
</g>
<g>
</g>
<g>
</g>
<g>
</g>
</svg>
