<?xml version="1.0" encoding="iso-8859-1"?>
<!-- Generator: Adobe Illustrator 19.0.0, SVG Export Plug-In . SVG Version: 6.00 Build 0)  -->
<svg version="1.1" id="Capa_1" xmlns="http://www.w3.org/2000/svg" xmlns:xlink="http://www.w3.org/1999/xlink" x="0px" y="0px"
	 viewBox="0 0 340.423 340.423" style="enable-background:new 0 0 340.423 340.423;" xml:space="preserve">
<path d="M142.206,340.423c-32.685,0-64.544-9.416-92.132-27.223l-22.069-14.238l24.638-9.109
	c49.938-18.453,83.491-66.529,83.491-119.642c0-53.102-33.553-101.189-83.495-119.652L28.01,41.45l22.064-14.237
	C77.651,9.406,109.511,0,142.206,0c93.855,0,170.211,76.357,170.211,170.211C312.418,264.067,236.061,340.423,142.206,340.423z
	 M86.34,302.809c17.627,7.479,36.578,11.355,55.866,11.355c79.377,0,143.953-64.58,143.953-143.953
	c0-79.371-64.576-143.953-143.953-143.953c-19.294,0-38.245,3.878-55.866,11.345c46.363,27.316,76.053,77.741,76.053,132.608
	C162.393,225.088,132.708,275.503,86.34,302.809z"/>
<g>
</g>
<g>
</g>
<g>
</g>
<g>
</g>
<g>
</g>
<g>
</g>
<g>
</g>
<g>
</g>
<g>
</g>
<g>
</g>
<g>
</g>
<g>
</g>
<g>
</g>
<g>
</g>
<g>
</g>
</svg>
