<?xml version="1.0" encoding="iso-8859-1"?>
<!-- Generator: Adobe Illustrator 19.1.0, SVG Export Plug-In . SVG Version: 6.00 Build 0)  -->
<svg version="1.1" id="Capa_1" xmlns="http://www.w3.org/2000/svg" xmlns:xlink="http://www.w3.org/1999/xlink" x="0px" y="0px"
	 viewBox="0 0 64 64" style="enable-background:new 0 0 64 64;" xml:space="preserve">
<g>
	<g>
		<g>
			<path d="M64,39.156H49.854c1.403-2.779,2.146-5.855,2.146-9c0-11.028-8.972-20-20-20s-20,8.972-20,20
				c0,3.145,0.743,6.221,2.146,9H0v2h64V39.156z M14,30.156c0-9.925,8.075-18,18-18s18,8.075,18,18c0,3.176-0.842,6.272-2.42,9
				H16.421C14.842,36.428,14,33.331,14,30.156z"/>
			<polygon points="24.293,52.302 25.707,53.79 32,47.533 38.293,53.844 39.707,52.294 32.707,45.156 31.293,45.156 			"/>
		</g>
	</g>
	<g>
	</g>
	<g>
	</g>
	<g>
	</g>
	<g>
	</g>
	<g>
	</g>
	<g>
	</g>
	<g>
	</g>
	<g>
	</g>
	<g>
	</g>
	<g>
	</g>
	<g>
	</g>
	<g>
	</g>
	<g>
	</g>
	<g>
	</g>
	<g>
	</g>
</g>
<g>
</g>
<g>
</g>
<g>
</g>
<g>
</g>
<g>
</g>
<g>
</g>
<g>
</g>
<g>
</g>
<g>
</g>
<g>
</g>
<g>
</g>
<g>
</g>
<g>
</g>
<g>
</g>
<g>
</g>
</svg>
