<?xml version="1.0" encoding="iso-8859-1"?>
<!-- Generator: Adobe Illustrator 19.1.0, SVG Export Plug-In . SVG Version: 6.00 Build 0)  -->
<svg version="1.1" id="Capa_1" xmlns="http://www.w3.org/2000/svg" xmlns:xlink="http://www.w3.org/1999/xlink" x="0px" y="0px"
	 viewBox="0 0 64 64" style="enable-background:new 0 0 64 64;" xml:space="preserve">
<g>
	<g>
		<g>
			<path d="M55.979,27.558C55.48,16.236,46.006,7.5,34,7.5c-10.599,0-19.63,6.68-21.811,16H11c-5.962,0-11,5.495-11,12
				c0,6.271,4.729,11,11,11h7v-2h-7c-5.131,0-9-3.869-9-9c0-5.42,4.122-10,9-10h2.83l0.153-0.815C15.637,15.886,24.055,9.5,34,9.5
				c11.215,0,20,8.346,20,19v1h1c4.125,0,7,4.216,7,8c0,3.991-3.009,7-7,7H45v2h10c5.131,0,9-3.869,9-9
				C64,32.97,60.818,28.139,55.979,27.558z"/>
			<path d="M41,47.5c0-7.267-7.883-17.205-8.219-17.625l-0.736-0.92l-0.788,0.876C30.879,30.251,22,40.2,22,47.5
				c0,5.215,4.206,9,10,9C37.467,56.5,41,52.967,41,47.5z M32,54.5c-3.853,0-8-2.19-8-7c0-5.349,5.802-12.821,7.954-15.408
				C33.894,34.72,39,42.148,39,47.5C39,51.883,36.383,54.5,32,54.5z"/>
		</g>
	</g>
	<g>
	</g>
	<g>
	</g>
	<g>
	</g>
	<g>
	</g>
	<g>
	</g>
	<g>
	</g>
	<g>
	</g>
	<g>
	</g>
	<g>
	</g>
	<g>
	</g>
	<g>
	</g>
	<g>
	</g>
	<g>
	</g>
	<g>
	</g>
	<g>
	</g>
</g>
<g>
</g>
<g>
</g>
<g>
</g>
<g>
</g>
<g>
</g>
<g>
</g>
<g>
</g>
<g>
</g>
<g>
</g>
<g>
</g>
<g>
</g>
<g>
</g>
<g>
</g>
<g>
</g>
<g>
</g>
</svg>
