<?xml version="1.0" encoding="iso-8859-1"?>
<!-- Generator: Adobe Illustrator 19.0.0, SVG Export Plug-In . SVG Version: 6.00 Build 0)  -->
<svg version="1.1" id="Capa_1" xmlns="http://www.w3.org/2000/svg" xmlns:xlink="http://www.w3.org/1999/xlink" x="0px" y="0px"
	 viewBox="0 0 511.752 511.752" style="enable-background:new 0 0 511.752 511.752;" xml:space="preserve">
<g>
	<path d="M511.752,131.619c0-31.829-12.402-61.749-34.907-84.254c-16.186-16.197-36.619-27.305-59.083-32.137l-25.663-5.529
		l10.975,23.848c9.891,21.502,9.554,45.796,0.537,66.755c-15.886-12.114-35.643-19.397-57.116-19.397
		c-15.684,0-30.813,3.826-44.446,11.171c-22.371-32.372-59.2-51.974-99.112-51.974c-66.468,0-120.54,54.066-120.54,120.535
		c0,6.615,0.549,13.211,1.631,19.735C37.362,182.321,0,220.899,0,268.041c0,48.385,39.367,87.752,87.752,87.752h321.877
		c48.394,0,87.763-39.367,87.763-87.752c0-20.088-7.143-38.838-18.959-53.907C499.885,191.833,511.752,162.664,511.752,131.619z
		 M409.629,329.534H87.752c-33.906,0-61.493-27.581-61.493-61.493c0-33.911,27.588-61.493,61.493-61.493h30.911l-5.493-17.14
		c-2.995-9.344-4.513-19.027-4.513-28.771c0-51.985,42.297-94.276,94.281-94.276c34.932,0,66.843,19.212,83.285,50.127l7.2,13.54
		l12.268-9.201c11.919-8.934,26.024-13.663,40.804-13.663c16.272,0,31.22,5.748,42.959,15.293
		c6.915,5.622,12.724,12.551,17.012,20.43c5.26,9.667,8.252,20.741,8.252,32.499c0,5.405-0.697,10.81-2.123,16.535l-3.282,13.17
		l13.272,2.852c5.121,1.098,9.867,3.022,14.399,5.301c8.47,4.257,15.798,10.294,21.449,17.724c7.938,10.435,12.7,23.316,12.7,37.072
		C471.133,301.953,443.54,329.534,409.629,329.534z M459.367,196.118c-5.886-4.098-12.167-7.688-19.018-10.259
		c0.421-3.528,0.626-7.026,0.626-10.472c0-20.571-6.682-39.569-17.887-55.1c11.944-21.616,16.339-46.809,12.091-71.201
		c8.484,4.36,16.278,10.021,23.101,16.844c17.55,17.55,27.213,40.876,27.213,65.688
		C485.493,155.898,476.195,178.706,459.367,196.118z"/>
	<path d="M326.134,377.211c-7.252,0-13.129,5.878-13.129,13.129v20.895c0,7.252,5.878,13.129,13.129,13.129
		c7.252,0,13.129-5.878,13.129-13.129v-20.895C339.263,383.089,333.385,377.211,326.134,377.211z"/>
	<path d="M326.134,437.669c-7.252,0-13.129,6.154-13.129,13.406c0,7.253,5.878,13.129,13.129,13.129
		c7.252,0,13.129-5.877,13.129-13.129v-0.564C339.263,443.259,333.385,437.669,326.134,437.669z"/>
	<path d="M326.134,475.508c-7.252,0-13.129,6.165-13.129,13.416c0,7.253,5.878,13.129,13.129,13.129
		c7.252,0,13.129-5.877,13.129-13.129v-0.573C339.263,481.098,333.385,475.508,326.134,475.508z"/>
	<path d="M104.497,437.669c-7.252,0-13.129,6.154-13.129,13.406c0,7.253,5.878,13.129,13.129,13.129
		c7.253,0,13.129-5.877,13.129-13.129v-0.564C117.626,443.259,111.75,437.669,104.497,437.669z"/>
	<path d="M211.061,377.211c-7.252,0-13.129,5.878-13.129,13.129v20.895c0,7.252,5.878,13.129,13.129,13.129
		c7.253,0,13.129-5.878,13.129-13.129v-20.895C224.19,383.089,218.314,377.211,211.061,377.211z"/>
	<path d="M155.687,379.581c-7.253,0-13.129,5.878-13.129,13.129v39.408c0,7.253,5.877,13.129,13.129,13.129
		c7.252,0,13.129-5.877,13.129-13.129V392.71C168.817,385.459,162.939,379.581,155.687,379.581z"/>
	<path d="M382.95,377.211c-7.252,0-13.129,5.878-13.129,13.129v12.668c0,7.252,5.878,13.129,13.129,13.129
		c7.252,0,13.129-5.878,13.129-13.129v-12.668C396.079,383.089,390.201,377.211,382.95,377.211z"/>
	<path d="M104.497,377.211c-7.252,0-13.129,5.878-13.129,13.129v25.336c0,7.252,5.878,13.129,13.129,13.129
		c7.253,0,13.129-5.878,13.129-13.129v-25.336C117.626,383.089,111.75,377.211,104.497,377.211z"/>
	<path d="M269.318,377.211c-7.252,0-13.129,5.878-13.129,13.129v41.778c0,7.253,5.878,13.129,13.129,13.129
		c7.253,0,13.129-5.877,13.129-13.129v-41.778C282.447,383.089,276.571,377.211,269.318,377.211z"/>
</g>
<g>
</g>
<g>
</g>
<g>
</g>
<g>
</g>
<g>
</g>
<g>
</g>
<g>
</g>
<g>
</g>
<g>
</g>
<g>
</g>
<g>
</g>
<g>
</g>
<g>
</g>
<g>
</g>
<g>
</g>
</svg>
