<?xml version="1.0" encoding="iso-8859-1"?>
<!-- Generator: Adobe Illustrator 19.1.0, SVG Export Plug-In . SVG Version: 6.00 Build 0)  -->
<svg version="1.1" id="Capa_1" xmlns="http://www.w3.org/2000/svg" xmlns:xlink="http://www.w3.org/1999/xlink" x="0px" y="0px"
	 viewBox="0 0 64 64" style="enable-background:new 0 0 64 64;" xml:space="preserve">
<g>
	<path d="M56.976,24.826C56.439,14.778,47.236,6.753,36,6.753c-4.097,0-7.938,1.156-11.156,3.157
		C22.197,6.659,18.254,4.753,14,4.753c-7.72,0-14,6.28-14,14c0,2.682,0.761,5.288,2.201,7.538c0.85,1.327,1.938,2.509,3.182,3.484
		C5.14,30.724,5,31.72,5,32.753c0,5.794,4.206,10,10,10h41c4.71,0,8-3.29,8-8C64,30.26,61.217,25.471,56.976,24.826z M3.886,25.213
		C2.652,23.286,2,21.052,2,18.753c0-6.617,5.383-12,12-12c3.591,0,6.929,1.581,9.197,4.291c-3.457,2.653-5.989,6.375-7.008,10.709
		H15c-3.88,0-7.242,2.448-8.9,6.009C5.251,27.016,4.492,26.162,3.886,25.213z M56,40.753H15c-4.71,0-8-3.29-8-8c0-4.962,3.589-9,8-9
		h2.829l0.153-0.815C19.528,14.718,27.105,8.753,36,8.753c10.477,0,19,7.626,19,17v1h1c3.536,0,6,4.216,6,8
		C62,38.398,59.645,40.753,56,40.753z"/>
	<path d="M20.868,45.248l-7.999,13.999l-1.736-0.992l7.999-13.999L20.868,45.248z"/>
	<path d="M30.868,45.248l-7.999,13.999l-1.736-0.992l7.999-13.999L30.868,45.248z"/>
	<path d="M40.868,45.248l-7.999,13.999l-1.736-0.992l7.999-13.999L40.868,45.248z"/>
	<path d="M50.867,45.248l-7.999,13.999l-1.736-0.992l7.999-13.999L50.867,45.248z"/>
	<g>
	</g>
	<g>
	</g>
	<g>
	</g>
	<g>
	</g>
	<g>
	</g>
	<g>
	</g>
	<g>
	</g>
	<g>
	</g>
	<g>
	</g>
	<g>
	</g>
	<g>
	</g>
	<g>
	</g>
	<g>
	</g>
	<g>
	</g>
	<g>
	</g>
</g>
<g>
</g>
<g>
</g>
<g>
</g>
<g>
</g>
<g>
</g>
<g>
</g>
<g>
</g>
<g>
</g>
<g>
</g>
<g>
</g>
<g>
</g>
<g>
</g>
<g>
</g>
<g>
</g>
<g>
</g>
</svg>
