<?xml version="1.0" encoding="iso-8859-1"?>
<!-- Generator: Adobe Illustrator 19.0.0, SVG Export Plug-In . SVG Version: 6.00 Build 0)  -->
<svg version="1.1" id="Capa_1" xmlns="http://www.w3.org/2000/svg" xmlns:xlink="http://www.w3.org/1999/xlink" x="0px" y="0px"
	 viewBox="0 0 524.122 524.122" style="enable-background:new 0 0 524.122 524.122;" xml:space="preserve">
<g>
	<path d="M469.086,318.749c-7.438-118.779-88.125-206.037-193.896-212.778V93.979c0-7.252-5.877-13.129-13.129-13.129
		c-7.252,0-13.129,5.878-13.129,13.129v11.992c-105.771,6.741-186.457,94-193.895,212.778l-0.882,13.95h26.618l1.927-10.822
		c2.996-16.761,17.52-28.926,34.547-28.926s31.552,12.165,34.547,28.926l1.928,10.822h23.592l1.929-10.822
		c2.994-16.761,17.519-28.926,34.546-28.926c17.027,0,31.552,12.165,34.547,28.926l0.594,3.339v150.051
		c0,12.462-10.144,22.596-22.607,22.596s-22.597-10.134-22.597-22.596v-21.448c0-7.253-5.878-13.129-13.129-13.129
		c-7.252,0-13.129,5.877-13.129,13.129v21.448c0,26.935,21.92,48.855,48.856,48.855c26.946,0,48.866-21.92,48.866-48.855V325.216
		l0.596-3.339c2.995-16.761,17.519-28.926,34.546-28.926s31.552,12.165,34.547,28.926l1.928,10.822h23.571l1.939-10.822
		c2.995-16.761,17.529-28.926,34.547-28.926c17.026,0,31.561,12.165,34.557,28.926l1.939,10.822h26.608L469.086,318.749z
		 M406.865,266.692c-19.397,0-36.947,9.037-48.262,23.449c-11.313-14.412-28.864-23.449-48.271-23.449
		c-19.406,0-36.957,9.037-48.271,23.449c-11.313-14.412-28.864-23.449-48.271-23.449c-19.407,0-36.957,9.037-48.271,23.449
		c-11.313-14.412-28.864-23.449-48.271-23.449c-10.226,0-19.95,2.513-28.506,6.996c22.485-84.583,89.979-142.116,173.319-142.116
		c83.352,0,150.845,57.533,173.319,142.126C426.815,269.206,417.102,266.692,406.865,266.692z"/>
	<path d="M85.346,93.64c7.252,0,13.129-5.878,13.129-13.129V13.129C98.476,5.878,92.598,0,85.346,0S72.217,5.878,72.217,13.129
		v67.381C72.217,87.763,78.095,93.64,85.346,93.64z"/>
	<path d="M144.244,59.944c7.253,0,13.129-5.877,13.129-13.129V13.129C157.373,5.878,151.497,0,144.244,0
		c-7.252,0-13.129,5.878-13.129,13.129v33.685C131.115,54.067,136.992,59.944,144.244,59.944z"/>
	<path d="M203.152,93.64c7.253,0,13.129-5.878,13.129-13.129V13.129C216.282,5.878,210.405,0,203.152,0
		c-7.252,0-13.129,5.878-13.129,13.129v67.381C190.023,87.763,195.901,93.64,203.152,93.64z"/>
	<path d="M262.06,59.944c7.253,0,13.129-5.877,13.129-13.129V13.129C275.19,5.878,269.313,0,262.06,0
		c-7.252,0-13.129,5.878-13.129,13.129v33.685C248.931,54.067,254.809,59.944,262.06,59.944z"/>
	<path d="M320.969,93.64c7.252,0,13.129-5.878,13.129-13.129V13.129C334.098,5.878,328.22,0,320.969,0
		c-7.252,0-13.129,5.878-13.129,13.129v67.381C307.839,87.763,313.717,93.64,320.969,93.64z"/>
	<path d="M379.866,59.944c7.253,0,13.129-5.877,13.129-13.129V13.129C392.996,5.878,387.119,0,379.866,0
		c-7.252,0-13.129,5.878-13.129,13.129v33.685C366.737,54.067,372.615,59.944,379.866,59.944z"/>
	<path d="M438.775,93.64c7.253,0,13.129-5.878,13.129-13.129V13.129C451.904,5.878,446.027,0,438.775,0
		c-7.252,0-13.129,5.878-13.129,13.129v67.381C425.645,87.763,431.523,93.64,438.775,93.64z"/>
	<path d="M85.305,138.372c3.467,0,6.832-1.374,9.354-3.887c2.411-2.42,3.775-5.785,3.775-9.242c0-3.466-1.364-6.83-3.775-9.252
		c-4.944-4.934-13.765-4.934-18.597,0c-2.411,2.421-3.887,5.785-3.887,9.252c0,3.457,1.477,6.822,3.887,9.242
		C78.484,136.998,81.838,138.372,85.305,138.372z"/>
	<path d="M144.233,104.338c3.467,0,6.832-1.364,9.345-3.887c2.421-2.421,3.784-5.888,3.784-9.242c0-3.364-1.363-6.832-3.887-9.354
		c-4.934-4.832-13.652-4.832-18.483,0c-2.524,2.523-3.888,5.887-3.888,9.354s1.364,6.821,3.888,9.242
		C137.403,102.861,140.767,104.338,144.233,104.338z"/>
	<path d="M379.825,104.338c3.467,0,6.832-1.364,9.356-3.887c2.411-2.421,3.774-5.888,3.774-9.242c0-3.364-1.363-6.832-3.774-9.354
		c-5.047-4.832-13.766-4.832-18.597,0c-2.411,2.523-3.888,5.887-3.888,9.354s1.478,6.821,3.888,9.242
		C373.004,102.861,376.359,104.338,379.825,104.338z"/>
	<path d="M438.755,138.372c3.467,0,6.831-1.374,9.344-3.887c2.421-2.42,3.786-5.785,3.786-9.242c0-3.466-1.365-6.83-3.786-9.252
		c-4.934-4.934-13.754-4.934-18.586,0c-2.421,2.421-3.887,5.785-3.887,9.252c0,3.457,1.466,6.822,3.887,9.242
		C431.923,136.998,435.287,138.372,438.755,138.372z"/>
</g>
<g>
</g>
<g>
</g>
<g>
</g>
<g>
</g>
<g>
</g>
<g>
</g>
<g>
</g>
<g>
</g>
<g>
</g>
<g>
</g>
<g>
</g>
<g>
</g>
<g>
</g>
<g>
</g>
<g>
</g>
</svg>
