<?xml version="1.0" encoding="iso-8859-1"?>
<!-- Generator: Adobe Illustrator 19.1.0, SVG Export Plug-In . SVG Version: 6.00 Build 0)  -->
<svg version="1.1" id="Capa_1" xmlns="http://www.w3.org/2000/svg" xmlns:xlink="http://www.w3.org/1999/xlink" x="0px" y="0px"
	 viewBox="0 0 64.041 64.041" style="enable-background:new 0 0 64.041 64.041;" xml:space="preserve">
<g>
	<path d="M2.242,26.31c0.85,1.327,1.938,2.509,3.182,3.484c-0.243,0.949-0.383,1.945-0.383,2.978c0,5.794,4.206,10,10,10h41
		c4.71,0,8-3.29,8-8c0-4.493-2.783-9.282-7.024-9.927C56.48,14.797,47.277,6.772,36.041,6.772c-4.097,0-7.938,1.156-11.156,3.157
		c-2.647-3.251-6.59-5.157-10.844-5.157c-0.843,0-1.718,0.084-2.599,0.25L9.988,5.296l0.796,1.247
		c0.822,1.289,1.257,2.773,1.257,4.291c0,4.411-3.589,8-8,8c-0.89,0-1.781-0.154-2.649-0.459L0,17.886l0.062,1.474
		C0.165,21.84,0.919,24.243,2.242,26.31z M55.041,25.772v1h1c3.536,0,6,4.216,6,8c0,3.645-2.355,6-6,6h-41c-4.71,0-8-3.29-8-8
		c0-4.962,3.589-9,8-9h2.829l0.153-0.815c1.546-8.22,9.123-14.185,18.018-14.185C46.518,8.772,55.041,16.398,55.041,25.772z
		 M4.041,20.834c5.514,0,10-4.486,10-10c0-1.394-0.292-2.763-0.853-4.03c0.289-0.021,0.573-0.032,0.853-0.032
		c3.591,0,6.929,1.581,9.197,4.291c-3.457,2.653-5.989,6.375-7.008,10.709h-1.189c-3.88,0-7.242,2.448-8.9,6.009
		c-0.85-0.747-1.607-1.601-2.215-2.549c-0.885-1.383-1.473-2.942-1.73-4.573C2.808,20.776,3.424,20.834,4.041,20.834z"/>
	<path d="M11.174,58.276l7.999-13.999l1.736,0.992l-7.999,14L11.174,58.276z"/>
	<path d="M21.173,58.277l7.999-13.999l1.736,0.992l-7.999,13.999L21.173,58.277z"/>
	<path d="M31.174,58.276l7.999-13.999l1.736,0.992L32.91,59.268L31.174,58.276z"/>
	<path d="M41.173,58.276l7.999-13.999l1.736,0.992l-7.998,14L41.173,58.276z"/>
	<g>
	</g>
	<g>
	</g>
	<g>
	</g>
	<g>
	</g>
	<g>
	</g>
	<g>
	</g>
	<g>
	</g>
	<g>
	</g>
	<g>
	</g>
	<g>
	</g>
	<g>
	</g>
	<g>
	</g>
	<g>
	</g>
	<g>
	</g>
	<g>
	</g>
</g>
<g>
</g>
<g>
</g>
<g>
</g>
<g>
</g>
<g>
</g>
<g>
</g>
<g>
</g>
<g>
</g>
<g>
</g>
<g>
</g>
<g>
</g>
<g>
</g>
<g>
</g>
<g>
</g>
<g>
</g>
</svg>
