<?xml version="1.0" encoding="UTF-8" standalone="no"?>
<svg xmlns:dc="http://purl.org/dc/elements/1.1/" xmlns:cc="http://creativecommons.org/ns#" xmlns:rdf="http://www.w3.org/1999/02/22-rdf-syntax-ns#" xmlns:svg="http://www.w3.org/2000/svg" xmlns="http://www.w3.org/2000/svg" xmlns:sodipodi="http://sodipodi.sourceforge.net/DTD/sodipodi-0.dtd" xmlns:inkscape="http://www.inkscape.org/namespaces/inkscape" width="32px" height="32px" viewBox="0 0 32 32.000001" id="svg2" version="1.1" inkscape:version="0.91 r13725" sodipodi:docname="14.svg">
  <defs id="defs4">
    <pattern y="0" x="0" height="6" width="6" patternUnits="userSpaceOnUse" id="EMFhbasepattern"/>
    <pattern y="0" x="0" height="6" width="6" patternUnits="userSpaceOnUse" id="EMFhbasepattern-0"/>
    <pattern y="0" x="0" height="6" width="6" patternUnits="userSpaceOnUse" id="EMFhbasepattern-1"/>
  </defs>
  <sodipodi:namedview id="base" pagecolor="#ffffff" bordercolor="#666666" borderopacity="1.0" inkscape:pageopacity="0.0" inkscape:pageshadow="2" inkscape:zoom="22.627417" inkscape:cx="32.515591" inkscape:cy="21.741969" inkscape:document-units="px" inkscape:current-layer="layer1" showgrid="true" units="px" inkscape:snap-bbox="true" inkscape:bbox-paths="true" inkscape:bbox-nodes="true" inkscape:snap-bbox-edge-midpoints="true" inkscape:snap-bbox-midpoints="true" inkscape:window-width="1920" inkscape:window-height="1027" inkscape:window-x="-8" inkscape:window-y="-8" inkscape:window-maximized="1">
    <inkscape:grid type="xygrid" id="grid3336"/>
  </sodipodi:namedview>
  
  <g inkscape:label="Layer 1" inkscape:groupmode="layer" id="layer1" transform="translate(0,-1020.3622)">
    <path style="color:#000000;font-style:normal;font-variant:normal;font-weight:normal;font-stretch:normal;font-size:medium;line-height:normal;font-family:sans-serif;text-indent:0;text-align:start;text-decoration:none;text-decoration-line:none;text-decoration-style:solid;text-decoration-color:#000000;letter-spacing:normal;word-spacing:normal;text-transform:none;direction:ltr;block-progression:tb;writing-mode:lr-tb;baseline-shift:baseline;text-anchor:start;white-space:normal;clip-rule:nonzero;display:inline;overflow:visible;visibility:visible;opacity:1;isolation:auto;mix-blend-mode:normal;color-interpolation:sRGB;color-interpolation-filters:linearRGB;solid-color:#000000;solid-opacity:1;fill:#000000;fill-opacity:1;fill-rule:nonzero;stroke:none;stroke-width:1;stroke-linecap:round;stroke-linejoin:round;stroke-miterlimit:4;stroke-dasharray:none;stroke-dashoffset:0;stroke-opacity:1;color-rendering:auto;image-rendering:auto;shape-rendering:auto;text-rendering:auto;enable-background:accumulate" d="m 21,1023.3602 a 0.50005,0.50005 0 0 0 -0.212891,0.051 c -2.029304,0.067 -3.88852,1.0285 -5.164062,2.6016 -0.659715,-0.3613 -1.366356,-0.6519 -2.123047,-0.6524 -2.428171,0 -4.3896432,1.9466 -4.4707031,4.3555 -0.3428588,-0.1334 -0.6544469,-0.3548 -1.0273438,-0.3555 a 0.50005,0.50005 0 0 0 -0.00195,0 c -1.2766936,10e-5 -2.3040632,0.8712 -2.7265625,2.045 C 2.9002172,1031.5295 1,1033.4561 1,1035.8602 c 0,2.4843 2.0156486,4.5 4.5,4.5 l 20,0 c 2.484351,0 4.5,-2.0157 4.5,-4.5 0,-1.6429 -0.943798,-3.0005 -2.257812,-3.7832 0.143698,-0.5628 0.257127,-1.1351 0.257812,-1.7168 7e-6,-3.7957 -3.046984,-6.8605 -6.818359,-6.9628 A 0.50005,0.50005 0 0 0 21,1023.3602 Z m 0,1 c 3.319633,0 6.000006,2.6803 6,6 -8.9e-4,0.5927 -0.09004,1.1833 -0.263672,1.75 A 0.50005,0.50005 0 0 0 27,1032.7079 c 1.182653,0.5618 2,1.7482 2,3.1523 0,1.9476 -1.552351,3.5 -3.5,3.5 l -20,0 c -1.9476486,0 -3.5,-1.5524 -3.5,-3.5 0,-1.9477 1.5523514,-3.5 3.5,-3.5 l 0.050781,0 a 0.50005,0.50005 0 0 0 0.4902344,-0.4003 c 0.1906638,-0.9341 1.0056649,-1.5996 1.9589844,-1.5997 0.4473367,8e-4 0.8808512,0.1512 1.2324219,0.4278 a 0.50005,0.50005 0 0 0 0.8027341,-0.4649 c -0.02215,-0.1532 -0.03346,-0.3082 -0.03516,-0.4629 0.0032,-1.9361 1.563081,-3.4941 3.5,-3.4941 0.699618,5e-4 1.381915,0.209 1.960938,0.6016 a 0.50005,0.50005 0 0 0 0.685546,-0.1192 c 1.127041,-1.5575 2.930992,-2.48 4.853516,-2.4824 l 0,-0.01 z m -7.507812,16.4844 A 0.50005,0.50005 0 0 0 13,1041.3524 l 0,7 a 0.50005,0.50005 0 1 0 1,0 l 0,-7 a 0.50005,0.50005 0 0 0 -0.507812,-0.5078 z m -7.0000005,0.5078 A 0.50005,0.50005 0 0 0 6,1041.8602 l 0,7 a 0.50005,0.50005 0 1 0 1,0 l 0,-7 a 0.50005,0.50005 0 0 0 -0.5078125,-0.5078 z m 14.0000005,0 A 0.50005,0.50005 0 0 0 20,1041.8602 l 0,7 a 0.50005,0.50005 0 1 0 1,0 l 0,-7 a 0.50005,0.50005 0 0 0 -0.507812,-0.5078 z m -10.5,0.3321 A 0.50004976,0.50004976 0 0 0 9.5,1042.1903 l 0,3.1621 a 0.50004976,0.50004976 0 1 0 1,0 l 0,-3.1621 a 0.50004976,0.50004976 0 0 0 -0.507812,-0.5058 z m 14,0 A 0.50004976,0.50004976 0 0 0 23.5,1042.1903 l 0,3.1621 a 0.50004976,0.50004976 0 1 0 1,0 l 0,-3.1621 a 0.50004976,0.50004976 0 0 0 -0.507812,-0.5058 z m -7,0.1211 A 0.50004976,0.50004976 0 0 0 16.5,1042.3114 l 0,3.9199 a 0.50004976,0.50004976 0 1 0 1,0 l 0,-3.9199 a 0.50004976,0.50004976 0 0 0 -0.507812,-0.5058 z" id="path6289-1-7" inkscape:connector-curvature="0"/>
  </g>

	
	
	<metadata>
		<rdf:RDF xmlns:rdf="http://www.w3.org/1999/02/22-rdf-syntax-ns#" xmlns:rdfs="http://www.w3.org/2000/01/rdf-schema#" xmlns:dc="http://purl.org/dc/elements/1.1/">
			<rdf:Description about="https://iconscout.com/legal#licenses" dc:title="Ecology, Environment, Weather, Season, Rain, Cloud" dc:description="Ecology, Environment, Weather, Season, Rain, Cloud" dc:publisher="Iconscout" dc:date="2016-12-14" dc:format="image/svg+xml" dc:language="en">
				<dc:creator>
					<rdf:Bag>
						<rdf:li>Jemis Mali</rdf:li>
					</rdf:Bag>
				</dc:creator>
			</rdf:Description>
		</rdf:RDF>
    </metadata></svg>
