<?xml version="1.0" encoding="iso-8859-1"?>
<!-- Generator: Adobe Illustrator 19.1.0, SVG Export Plug-In . SVG Version: 6.00 Build 0)  -->
<svg version="1.1" id="Capa_1" xmlns="http://www.w3.org/2000/svg" xmlns:xlink="http://www.w3.org/1999/xlink" x="0px" y="0px"
	 viewBox="0 0 64.1 64.1" style="enable-background:new 0 0 64.1 64.1;" xml:space="preserve">
<g>
	<g>
		<g>
			<path d="M57,25.15c-0.5-10-9.7-18.1-21-18.1c-4.1,0-7.9,1.2-11.2,3.2c-2.6-3.3-6.6-5.2-10.8-5.2c-0.8,0-1.7,0.1-2.6,0.2l-1.5,0.3
				l0.8,1.2c0.8,1.3,1.3,2.8,1.3,4.3c0,4.4-3.6,8-8,8c-0.9,0-1.8-0.2-2.6-0.5L0,18.05l0.1,1.5c0.1,2.5,0.9,4.9,2.2,6.9
				c0.8,1.3,1.9,2.5,3.2,3.5c-0.2,0.9-0.4,1.9-0.4,3c0,5.8,4.2,10,10,10h41c4.7,0,8-3.3,8-8C64,30.55,61.3,25.75,57,25.15z
				 M3.9,25.45c-0.9-1.4-1.5-2.9-1.7-4.6c0.6,0.1,1.2,0.2,1.8,0.2c5.5,0,10-4.5,10-10c0-1.4-0.3-2.8-0.9-4c0.3,0,0.6,0,0.9,0
				c3.6,0,6.9,1.6,9.2,4.3c-3.5,2.7-6,6.4-7,10.7H15c-3.9,0-7.2,2.4-8.9,6C5.3,27.25,4.5,26.45,3.9,25.45z M56,41.05H15
				c-4.7,0-8-3.3-8-8c0-5,3.6-9,8-9h2.8l0.2-0.8c1.5-8.2,9.1-14.2,18-14.2c10.5,0,19,7.6,19,17v1h1c3.5,0,6,4.2,6,8
				C62,38.65,59.7,41.05,56,41.05z"/>
			<rect x="23" y="45.05" width="2" height="4"/>
			<rect x="23" y="53.05" width="2" height="4"/>
			<path d="M27.3,46.35l1.4,1.4l-2,2l-1.4-1.4L27.3,46.35z"/>
			<path d="M21.3,52.35l1.4,1.4l-2,2l-1.4-1.4L21.3,52.35z"/>
			<path d="M25.3,53.75l1.4-1.4l2,2l-1.4,1.4L25.3,53.75z"/>
			<path d="M22.7,48.35l-1.4,1.4l-2-2l1.4-1.4L22.7,48.35z"/>
			<rect x="26" y="50.05" width="4" height="2"/>
			<rect x="18" y="50.05" width="4" height="2"/>
			<rect x="43" y="47.05" width="2" height="4"/>
			<rect x="43" y="55.05" width="2" height="4"/>
			<path d="M47.3,48.35l1.4,1.4l-2,2l-1.4-1.4L47.3,48.35z"/>
			<path d="M41.3,54.35l1.4,1.4l-2,2l-1.4-1.4L41.3,54.35z"/>
			<path d="M45.3,55.75l1.4-1.4l2,2l-1.4,1.4L45.3,55.75z"/>
			<path d="M42.7,50.35l-1.4,1.4l-2-2l1.4-1.4L42.7,50.35z"/>
			<rect x="46" y="52.05" width="4" height="2"/>
			<rect x="38" y="52.05" width="4" height="2"/>
		</g>
	</g>
</g>
<g>
</g>
<g>
</g>
<g>
</g>
<g>
</g>
<g>
</g>
<g>
</g>
<g>
</g>
<g>
</g>
<g>
</g>
<g>
</g>
<g>
</g>
<g>
</g>
<g>
</g>
<g>
</g>
<g>
</g>
</svg>
