<?xml version="1.0" encoding="iso-8859-1"?>
<!-- Generator: Adobe Illustrator 19.1.0, SVG Export Plug-In . SVG Version: 6.00 Build 0)  -->
<svg version="1.1" id="Capa_1" xmlns="http://www.w3.org/2000/svg" xmlns:xlink="http://www.w3.org/1999/xlink" x="0px" y="0px"
	 viewBox="0 0 64 64" style="enable-background:new 0 0 64 64;" xml:space="preserve">
<g>
	<g>
		<g>
			<path d="M5.4,30C5.2,30.9,5,31.9,5,33c0,5.8,4.2,10,10,10h41c4.7,0,8-3.3,8-8c0-4.5-2.8-9.3-7-9.9C56.5,15.1,47.3,7,36,7
				c-4.1,0-7.9,1.2-11.2,3.2C22.2,6.9,18.2,5,14,5C6.3,5,0,11.3,0,19c0,2.7,0.8,5.3,2.2,7.5C3.1,27.9,4.1,29,5.4,30z M55,26v1h1
				c3.5,0,6,4.2,6,8c0,3.6-2.4,6-6,6H15c-4.7,0-8-3.3-8-8c0-5,3.6-9,8-9h2.8l0.2-0.8C19.5,15,27.1,9,36,9C46.5,9,55,16.6,55,26z
				 M14,7c3.6,0,6.9,1.6,9.2,4.3c-3.5,2.7-6,6.4-7,10.7H15c-3.9,0-7.2,2.4-8.9,6c-0.8-0.7-1.6-1.6-2.2-2.5C2.7,23.6,2,21.3,2,19
				C2,12.4,7.4,7,14,7z"/>
			<rect x="23" y="45" width="2" height="4"/>
			<rect x="23" y="53" width="2" height="4"/>
			<path d="M26.7,49.7l-1.4-1.4l2-2l1.4,1.4L26.7,49.7z"/>
			<path d="M20.7,55.7l-1.4-1.4l2-2l1.4,1.4L20.7,55.7z"/>
			<path d="M25.3,53.7l1.4-1.4l2,2l-1.4,1.4L25.3,53.7z"/>
			<path d="M22.7,48.3l-1.4,1.4l-2-2l1.4-1.4L22.7,48.3z"/>
			<rect x="26" y="50" width="4" height="2"/>
			<rect x="18" y="50" width="4" height="2"/>
			<rect x="43" y="47" width="2" height="4"/>
			<rect x="43" y="55" width="2" height="4"/>
			<path d="M46.7,51.7l-1.4-1.4l2-2l1.4,1.4L46.7,51.7z"/>
			<path d="M40.7,57.7l-1.4-1.4l2-2l1.4,1.4L40.7,57.7z"/>
			<path d="M45.3,55.7l1.4-1.4l2,2l-1.4,1.4L45.3,55.7z"/>
			<path d="M42.7,50.3l-1.4,1.4l-2-2l1.4-1.4L42.7,50.3z"/>
			<rect x="46" y="52" width="4" height="2"/>
			<rect x="38" y="52" width="4" height="2"/>
		</g>
	</g>
</g>
<g>
</g>
<g>
</g>
<g>
</g>
<g>
</g>
<g>
</g>
<g>
</g>
<g>
</g>
<g>
</g>
<g>
</g>
<g>
</g>
<g>
</g>
<g>
</g>
<g>
</g>
<g>
</g>
<g>
</g>
</svg>
