<?xml version="1.0" encoding="iso-8859-1"?>
<!-- Generator: Adobe Illustrator 19.1.0, SVG Export Plug-In . SVG Version: 6.00 Build 0)  -->
<svg version="1.1" id="Capa_1" xmlns="http://www.w3.org/2000/svg" xmlns:xlink="http://www.w3.org/1999/xlink" x="0px" y="0px"
	 viewBox="0 0 64.1 64.1" style="enable-background:new 0 0 64.1 64.1;" xml:space="preserve">
<g>
	<g>
		<g>
			<path d="M57,24.9c-0.5-10-9.7-18.1-21-18.1c-4.1,0-7.9,1.2-11.2,3.2C22.2,6.7,18.2,4.8,14,4.8c-0.8,0-1.7,0.1-2.6,0.2L9.9,5.3
				l0.8,1.2c0.8,1.3,1.3,2.8,1.3,4.3c0,4.4-3.6,8-8,8c-0.9,0-1.8-0.2-2.6-0.5L0,17.8l0.1,1.5c0.1,2.5,0.9,4.9,2.2,7
				c0.8,1.3,1.9,2.5,3.2,3.5c-0.2,0.9-0.4,1.9-0.4,3c0,5.8,4.2,10,10,10h41c4.7,0,8-3.3,8-8C64,30.3,61.3,25.5,57,24.9z M3.9,25.3
				c-0.9-1.4-1.5-2.9-1.7-4.6c0.6,0.1,1.2,0.2,1.8,0.2c5.5,0,10-4.5,10-10c0-1.4-0.3-2.8-0.9-4c0.3,0,0.6,0,0.9,0
				c3.6,0,6.9,1.6,9.2,4.3c-3.5,2.7-6,6.4-7,10.7H15c-3.9,0-7.2,2.4-8.9,6C5.3,27.1,4.5,26.2,3.9,25.3z M56,40.8H15
				c-4.7,0-8-3.3-8-8c0-5,3.6-9,8-9h2.8L18,23c1.5-8.2,9.1-14.2,18-14.2c10.5,0,19,7.6,19,17v1h1c3.5,0,6,4.2,6,8
				C62,38.5,59.7,40.8,56,40.8z"/>
			<polygon points="31.1,44.4 27.5,52.8 31.3,52.8 28.2,58.3 29.9,59.3 34.8,50.8 30.6,50.8 33,45.2 			"/>
			<path d="M23.9,45.3l-8,14l-1.7-1l8-14L23.9,45.3z"/>
			<path d="M47.9,45.3l-8,14l-1.7-1l8-14L47.9,45.3z"/>
		</g>
	</g>
</g>
<g>
</g>
<g>
</g>
<g>
</g>
<g>
</g>
<g>
</g>
<g>
</g>
<g>
</g>
<g>
</g>
<g>
</g>
<g>
</g>
<g>
</g>
<g>
</g>
<g>
</g>
<g>
</g>
<g>
</g>
</svg>
