<?xml version="1.0" encoding="iso-8859-1"?>
<!-- Generator: Adobe Illustrator 19.1.0, SVG Export Plug-In . SVG Version: 6.00 Build 0)  -->
<svg version="1.1" id="Capa_1" xmlns="http://www.w3.org/2000/svg" xmlns:xlink="http://www.w3.org/1999/xlink" x="0px" y="0px"
	 viewBox="0 0 64 64" style="enable-background:new 0 0 64 64;" xml:space="preserve">
<g>
	<g>
		<g>
			<path d="M57,24.85c-0.5-10-9.7-18.1-21-18.1c-4.1,0-7.9,1.2-11.2,3.2c-2.6-3.3-6.6-5.2-10.8-5.2c-7.7,0-14,6.3-14,14
				c0,2.7,0.8,5.3,2.2,7.5c0.9,1.3,1.9,2.5,3.2,3.5c-0.2,0.9-0.4,1.9-0.4,3c0,5.8,4.2,10,10,10h41c4.7,0,8-3.3,8-8
				C64,30.35,61.2,25.55,57,24.85z M3.9,25.25c-1.2-1.9-1.9-4.2-1.9-6.5c0-6.6,5.4-12,12-12c3.6,0,6.9,1.6,9.2,4.3
				c-3.5,2.7-6,6.4-7,10.7H15c-3.9,0-7.2,2.4-8.9,6C5.3,27.05,4.5,26.25,3.9,25.25z M56,40.85H15c-4.7,0-8-3.3-8-8c0-5,3.6-9,8-9
				h2.8l0.2-0.8c1.5-8.2,9.1-14.2,18-14.2c10.5,0,19,7.6,19,17v1h1c3.5,0,6,4.2,6,8C62,38.45,59.6,40.85,56,40.85z"/>
			<polygon points="31.1,44.45 27.5,52.85 31.3,52.85 28.1,58.35 29.9,59.25 34.7,50.85 30.5,50.85 32.9,45.15 			"/>
			<path d="M23.9,45.25l-8,14l-1.7-1l8-14L23.9,45.25z"/>
			<path d="M47.9,45.25l-8,14l-1.7-1l8-14L47.9,45.25z"/>
		</g>
	</g>
</g>
<g>
</g>
<g>
</g>
<g>
</g>
<g>
</g>
<g>
</g>
<g>
</g>
<g>
</g>
<g>
</g>
<g>
</g>
<g>
</g>
<g>
</g>
<g>
</g>
<g>
</g>
<g>
</g>
<g>
</g>
</svg>
