<?xml version="1.0" encoding="iso-8859-1"?>
<!-- Generator: Adobe Illustrator 19.1.0, SVG Export Plug-In . SVG Version: 6.00 Build 0)  -->
<svg version="1.1" id="Capa_1" xmlns="http://www.w3.org/2000/svg" xmlns:xlink="http://www.w3.org/1999/xlink" x="0px" y="0px"
	 viewBox="0 0 64 64" style="enable-background:new 0 0 64 64;" xml:space="preserve">
<g>
	<path d="M56.976,28.825C56.439,18.777,47.236,10.752,36,10.752c-1.959,0-3.854,0.275-5.657,0.769
		C27.916,9.714,25.042,8.752,22,8.752c-7.72,0-14,6.28-14,14c0,2.164,0.487,3.615,1.247,5.018C6.683,29.764,5,33.043,5,36.752
		c0,5.794,4.206,10,10,10h41c4.71,0,8-3.29,8-8C64,34.259,61.217,29.47,56.976,28.825z M10,22.752c0-6.617,5.383-12,12-12
		c2.119,0,4.143,0.547,5.943,1.58c-5.84,2.384-10.311,7.286-11.754,13.42H15c-1.442,0-2.811,0.344-4.05,0.951
		C10.292,25.452,10,24.37,10,22.752z M56,44.752H15c-4.71,0-8-3.29-8-8c0-4.962,3.589-9,8-9h2.829l0.153-0.815
		c1.546-8.22,9.123-14.185,18.018-14.185c10.477,0,19,7.626,19,17v1h1c3.536,0,6,4.216,6,8C62,42.397,59.645,44.752,56,44.752z"/>
	<rect y="21.752" width="6" height="2"/>
	<rect x="21" y="0.752" width="2" height="6"/>
	<path d="M4.708,4.045l6,6l-1.414,1.414l-6-6L4.708,4.045z"/>
	<polygon points="31.081,48.358 27.483,56.752 31.276,56.752 28.132,62.256 29.868,63.248 34.724,54.752 30.517,54.752 
		32.919,49.146 	"/>
	<path d="M23.868,49.248l-7.999,13.999l-1.736-0.992l7.999-13.999L23.868,49.248z"/>
	<path d="M47.868,49.247l-7.999,13.999l-1.736-0.992l7.999-13.999L47.868,49.247z"/>
	<g>
	</g>
	<g>
	</g>
	<g>
	</g>
	<g>
	</g>
	<g>
	</g>
	<g>
	</g>
	<g>
	</g>
	<g>
	</g>
	<g>
	</g>
	<g>
	</g>
	<g>
	</g>
	<g>
	</g>
	<g>
	</g>
	<g>
	</g>
	<g>
	</g>
</g>
<g>
</g>
<g>
</g>
<g>
</g>
<g>
</g>
<g>
</g>
<g>
</g>
<g>
</g>
<g>
</g>
<g>
</g>
<g>
</g>
<g>
</g>
<g>
</g>
<g>
</g>
<g>
</g>
<g>
</g>
</svg>
