<?xml version="1.0" encoding="iso-8859-1"?>
<!-- Generator: Adobe Illustrator 19.1.0, SVG Export Plug-In . SVG Version: 6.00 Build 0)  -->
<svg version="1.1" id="Capa_1" xmlns="http://www.w3.org/2000/svg" xmlns:xlink="http://www.w3.org/1999/xlink" x="0px" y="0px"
	 viewBox="0 0 64 64" style="enable-background:new 0 0 64 64;" xml:space="preserve">
<g>
	<g>
		<g>
			<path d="M5.383,29.774C5.14,30.723,5,31.719,5,32.752c0,5.794,4.206,10,10,10h41c4.71,0,8-3.29,8-8
				c0-4.493-2.783-9.282-7.024-9.927C56.439,14.777,47.236,6.752,36,6.752c-4.097,0-7.938,1.156-11.156,3.157
				C22.197,6.658,18.254,4.752,14,4.752c-7.72,0-14,6.28-14,14c0,2.682,0.761,5.288,2.201,7.538
				C3.051,27.617,4.14,28.799,5.383,29.774z M55,25.752v1h1c3.536,0,6,4.216,6,8c0,3.645-2.355,6-6,6H15c-4.71,0-8-3.29-8-8
				c0-4.962,3.589-9,8-9h2.829l0.153-0.815C19.528,14.717,27.105,8.752,36,8.752C46.477,8.752,55,16.378,55,25.752z M14,6.752
				c3.591,0,6.929,1.581,9.197,4.291c-3.457,2.653-5.989,6.375-7.008,10.709H15c-3.88,0-7.242,2.448-8.9,6.009
				c-0.849-0.747-1.606-1.601-2.214-2.549C2.652,23.285,2,21.051,2,18.752C2,12.135,7.383,6.752,14,6.752z"/>
			<polygon points="30.868,59.248 35.724,50.752 30.517,50.752 32.919,45.146 31.081,44.358 27.483,52.752 32.276,52.752 
				29.132,58.256 			"/>
			<polygon points="40.868,59.248 45.724,50.752 40.517,50.752 42.919,45.146 41.081,44.358 37.483,52.752 42.276,52.752 
				39.132,58.256 			"/>
			<polygon points="20.868,59.248 25.724,50.752 20.517,50.752 22.919,45.146 21.081,44.358 17.483,52.752 22.276,52.752 
				19.132,58.256 			"/>
		</g>
	</g>
	<g>
	</g>
	<g>
	</g>
	<g>
	</g>
	<g>
	</g>
	<g>
	</g>
	<g>
	</g>
	<g>
	</g>
	<g>
	</g>
	<g>
	</g>
	<g>
	</g>
	<g>
	</g>
	<g>
	</g>
	<g>
	</g>
	<g>
	</g>
	<g>
	</g>
</g>
<g>
</g>
<g>
</g>
<g>
</g>
<g>
</g>
<g>
</g>
<g>
</g>
<g>
</g>
<g>
</g>
<g>
</g>
<g>
</g>
<g>
</g>
<g>
</g>
<g>
</g>
<g>
</g>
<g>
</g>
</svg>
