<?xml version="1.0" encoding="iso-8859-1"?>
<!-- Generator: Adobe Illustrator 19.1.0, SVG Export Plug-In . SVG Version: 6.00 Build 0)  -->
<svg version="1.1" id="Capa_1" xmlns="http://www.w3.org/2000/svg" xmlns:xlink="http://www.w3.org/1999/xlink" x="0px" y="0px"
	 viewBox="0 0 64 64" style="enable-background:new 0 0 64 64;" xml:space="preserve">
<g>
	<path d="M56.975,28.825C56.439,18.777,47.236,10.752,36,10.752c-1.959,0-3.854,0.275-5.658,0.769
		c-2.426-1.807-5.3-2.769-8.342-2.769c-7.72,0-14,6.28-14,14c0,2.164,0.487,3.615,1.247,5.018C6.683,29.763,5,33.043,5,36.752
		c0,5.794,4.206,10,10,10h41c4.71,0,8-3.29,8-8C64,34.259,61.217,29.47,56.975,28.825z M10,22.752c0-6.617,5.383-12,12-12
		c2.119,0,4.143,0.547,5.943,1.58c-5.84,2.384-10.312,7.286-11.754,13.42H15c-1.442,0-2.811,0.344-4.05,0.951
		C10.292,25.452,10,24.37,10,22.752z M56,44.752H15c-4.71,0-8-3.29-8-8c0-4.962,3.589-9,8-9h2.83l0.153-0.815
		c1.545-8.22,9.122-14.185,18.017-14.185c10.477,0,19,7.626,19,17v1h1c3.536,0,6,4.216,6,8C62,42.397,59.645,44.752,56,44.752z"/>
	<rect y="21.752" width="6" height="2"/>
	<rect x="21" y="0.752" width="2" height="6"/>
	<path d="M9.293,11.458l-6-6l1.414-1.414l6,6L9.293,11.458z"/>
	<polygon points="31.081,48.358 27.483,56.752 32.277,56.752 29.132,62.256 30.868,63.248 35.723,54.752 30.517,54.752 
		32.919,49.146 	"/>
	<polygon points="41.081,48.358 37.483,56.752 42.277,56.752 39.132,62.256 40.868,63.248 45.723,54.752 40.517,54.752 
		42.919,49.146 	"/>
	<polygon points="21.081,48.358 17.483,56.752 22.277,56.752 19.132,62.256 20.868,63.248 25.723,54.752 20.517,54.752 
		22.919,49.146 	"/>
	<g>
	</g>
	<g>
	</g>
	<g>
	</g>
	<g>
	</g>
	<g>
	</g>
	<g>
	</g>
	<g>
	</g>
	<g>
	</g>
	<g>
	</g>
	<g>
	</g>
	<g>
	</g>
	<g>
	</g>
	<g>
	</g>
	<g>
	</g>
	<g>
	</g>
</g>
<g>
</g>
<g>
</g>
<g>
</g>
<g>
</g>
<g>
</g>
<g>
</g>
<g>
</g>
<g>
</g>
<g>
</g>
<g>
</g>
<g>
</g>
<g>
</g>
<g>
</g>
<g>
</g>
<g>
</g>
</svg>
