<?xml version="1.0" encoding="iso-8859-1"?>
<!-- Generator: Adobe Illustrator 19.1.0, SVG Export Plug-In . SVG Version: 6.00 Build 0)  -->
<svg version="1.1" id="Capa_1" xmlns="http://www.w3.org/2000/svg" xmlns:xlink="http://www.w3.org/1999/xlink" x="0px" y="0px"
	 viewBox="0 0 64 64" style="enable-background:new 0 0 64 64;" xml:space="preserve">
<g>
	<path d="M32,49c9.374,0,17-7.626,17-17s-7.626-17-17-17s-17,7.626-17,17S22.626,49,32,49z M32,17c8.271,0,15,6.729,15,15
		s-6.729,15-15,15s-15-6.729-15-15S23.729,17,32,17z"/>
	<rect x="31" width="2" height="10"/>
	<rect x="31" y="54" width="2" height="10"/>
	<rect x="54" y="31" width="10" height="2"/>
	<rect y="31" width="10" height="2"/>
	<path d="M48.708,16.707l-1.414-1.414l5-5l1.414,1.414L48.708,16.707z"/>
	<path d="M11.707,53.706l-1.414-1.414l5-5l1.414,1.414L11.707,53.706z"/>
	<path d="M48.708,47.293l5,5l-1.414,1.414l-5-5L48.708,47.293z"/>
	<path d="M15.292,16.707l-5-5l1.414-1.414l5,5L15.292,16.707z"/>
	<g>
	</g>
	<g>
	</g>
	<g>
	</g>
	<g>
	</g>
	<g>
	</g>
	<g>
	</g>
	<g>
	</g>
	<g>
	</g>
	<g>
	</g>
	<g>
	</g>
	<g>
	</g>
	<g>
	</g>
	<g>
	</g>
	<g>
	</g>
	<g>
	</g>
</g>
<g>
</g>
<g>
</g>
<g>
</g>
<g>
</g>
<g>
</g>
<g>
</g>
<g>
</g>
<g>
</g>
<g>
</g>
<g>
</g>
<g>
</g>
<g>
</g>
<g>
</g>
<g>
</g>
<g>
</g>
</svg>
