<?xml version="1.0" encoding="iso-8859-1"?>
<!-- Generator: Adobe Illustrator 19.0.0, SVG Export Plug-In . SVG Version: 6.00 Build 0)  -->
<svg version="1.1" id="Capa_1" xmlns="http://www.w3.org/2000/svg" xmlns:xlink="http://www.w3.org/1999/xlink" x="0px" y="0px"
	 viewBox="0 0 475.763 475.763" style="enable-background:new 0 0 475.763 475.763;" xml:space="preserve">
<g>
	<circle cx="237.882" cy="237.882" r="75.761"/>
	<path d="M462.634,224.752h-92.022c-2.646-26.944-13.331-51.558-29.633-71.403l46.807-46.803c5.129-5.128,5.129-13.437,0-18.565
		c-5.129-5.129-13.437-5.129-18.566,0l-46.806,46.802c-19.846-16.303-44.462-26.988-71.405-29.634V13.132
		c0-7.252-5.878-13.129-13.129-13.129c-7.252,0-13.129,5.878-13.129,13.129v92.017c-26.943,2.646-51.555,13.331-71.4,29.634
		l-46.811-46.802c-5.129-5.129-13.448-5.129-18.566,0c-5.129,5.128-5.129,13.437,0,18.565l46.811,46.803
		c-16.3,19.845-26.986,44.46-29.632,71.403H13.129C5.878,224.752,0,230.63,0,237.881c0,7.253,5.878,13.129,13.129,13.129h92.023
		c2.646,26.945,13.331,51.559,29.633,71.405l-46.812,46.811c-5.129,5.129-5.129,13.437,0,18.566
		c2.565,2.564,5.924,3.846,9.283,3.846c3.359,0,6.719-1.282,9.283-3.846l46.811-46.811c19.845,16.302,44.457,26.987,71.4,29.632
		v92.018c0,7.252,5.878,13.129,13.129,13.129c7.252,0,13.129-5.878,13.129-13.129v-92.018c26.944-2.645,51.558-13.33,71.404-29.632
		l46.807,46.811c2.564,2.564,5.924,3.846,9.283,3.846c3.359,0,6.718-1.282,9.283-3.846c5.129-5.129,5.129-13.437,0-18.566
		l-46.807-46.811c16.302-19.846,26.987-44.461,29.633-71.405h92.022c7.253,0,13.129-5.877,13.129-13.129
		C475.763,230.63,469.887,224.752,462.634,224.752z M237.88,345.02c-59.072,0-107.133-48.065-107.133-107.139
		c0-59.072,48.061-107.137,107.133-107.137c59.077,0,107.139,48.065,107.139,107.137C345.018,296.954,296.957,345.02,237.88,345.02z
		"/>
</g>
<g>
</g>
<g>
</g>
<g>
</g>
<g>
</g>
<g>
</g>
<g>
</g>
<g>
</g>
<g>
</g>
<g>
</g>
<g>
</g>
<g>
</g>
<g>
</g>
<g>
</g>
<g>
</g>
<g>
</g>
</svg>
