<?xml version="1.0" encoding="iso-8859-1"?>
<!-- Generator: Adobe Illustrator 19.1.0, SVG Export Plug-In . SVG Version: 6.00 Build 0)  -->
<svg version="1.1" id="Capa_1" xmlns="http://www.w3.org/2000/svg" xmlns:xlink="http://www.w3.org/1999/xlink" x="0px" y="0px"
	 viewBox="0 0 64 64" style="enable-background:new 0 0 64 64;" xml:space="preserve">
<g>
	<g>
		<g>
			<path d="M57,28.1C56.5,18.1,47.3,10,36,10c-2,0-3.9,0.3-5.7,0.8C27.9,9,25,8,22,8C14.3,8,8,14.3,8,22c0,2.2,0.5,3.6,1.2,5
				C6.6,29,5,32.3,5,36c0,5.8,4.2,10,10,10v-2c-4.7,0-8-3.3-8-8c0-5,3.6-9,8-9h2.8l0.2-0.8C19.5,18,27.1,12,36,12
				c10.5,0,19,7.6,19,17v1h1c3.5,0,6,4.2,6,8c0,3.6-2.4,6-6,6v2c4.7,0,8-3.3,8-8C64,33.5,61.2,28.7,57,28.1z M16.2,25H15
				c-1.4,0-2.8,0.3-4,1c-0.7-1.3-1-2.3-1-4c0-6.6,5.4-12,12-12c2.1,0,4.1,0.5,5.9,1.6C22.1,14,17.6,18.9,16.2,25z"/>
			<rect y="21" width="6" height="2"/>
			<rect x="21" width="2" height="6"/>
			<path d="M9.3,10.7l-6-6l1.4-1.4l6,6L9.3,10.7z"/>
			<path d="M32,62c-2.2,0-4-1.8-4-4h-2c0,3.3,2.7,6,6,6s6-2.7,6-6s-2.7-6-6-6H2v2h30c2.2,0,4,1.8,4,4S34.2,62,32,62z"/>
			<path d="M45,48H4v2h41c3.3,0,6-2.7,6-6s-2.7-6-6-6s-6,2.7-6,6h2c0-2.2,1.8-4,4-4s4,1.8,4,4S47.2,48,45,48z"/>
		</g>
	</g>
</g>
<g>
</g>
<g>
</g>
<g>
</g>
<g>
</g>
<g>
</g>
<g>
</g>
<g>
</g>
<g>
</g>
<g>
</g>
<g>
</g>
<g>
</g>
<g>
</g>
<g>
</g>
<g>
</g>
<g>
</g>
</svg>
